<svg xmlns="http://www.w3.org/2000/svg" xmlns:xlink="http://www.w3.org/1999/xlink" zoomAndPan="magnify" viewBox="0 0 1000 1000" preserveAspectRatio="xMidYMid meet" version="1.0"><defs><g/><clipPath id="60a5023017"><path d="M 117.1875 0 L 632.8125 0 C 663.890625 0 693.699219 12.347656 715.675781 34.324219 C 737.652344 56.300781 750 86.109375 750 117.1875 L 750 632.8125 C 750 697.535156 697.535156 750 632.8125 750 L 117.1875 750 C 86.109375 750 56.300781 737.652344 34.324219 715.675781 C 12.347656 693.699219 0 663.890625 0 632.8125 L 0 117.1875 C 0 52.464844 52.464844 0 117.1875 0 Z M 117.1875 0 " clip-rule="nonzero"/></clipPath><clipPath id="fd94fe2a58"><path d="M 0 0 L 750 0 L 750 750 L 0 750 Z M 0 0 " clip-rule="nonzero"/></clipPath><clipPath id="b6321ccb2c"><path d="M 117.1875 0 L 632.8125 0 C 663.890625 0 693.699219 12.347656 715.675781 34.324219 C 737.652344 56.300781 750 86.109375 750 117.1875 L 750 632.8125 C 750 697.535156 697.535156 750 632.8125 750 L 117.1875 750 C 86.109375 750 56.300781 737.652344 34.324219 715.675781 C 12.347656 693.699219 0 663.890625 0 632.8125 L 0 117.1875 C 0 52.464844 52.464844 0 117.1875 0 Z M 117.1875 0 " clip-rule="nonzero"/></clipPath><clipPath id="4ac1f10663"><rect x="0" width="750" y="0" height="750"/></clipPath><clipPath id="0c5024e921"><path d="M 0.75 93.277344 L 27.335938 93.277344 L 27.335938 572.964844 L 0.75 572.964844 Z M 0.75 93.277344 " clip-rule="nonzero"/></clipPath><clipPath id="f545e7cbb8"><path d="M 14.042969 93.277344 C 21.382812 93.277344 27.335938 99.230469 27.335938 106.570312 L 27.335938 559.59375 C 27.335938 566.9375 21.382812 572.886719 14.042969 572.886719 C 6.703125 572.886719 0.75 566.9375 0.75 559.59375 L 0.75 106.570312 C 0.75 99.230469 6.703125 93.277344 14.042969 93.277344 Z M 14.042969 93.277344 " clip-rule="nonzero"/></clipPath><clipPath id="c7aae07778"><path d="M 0.75 0.277344 L 27.335938 0.277344 L 27.335938 479.960938 L 0.75 479.960938 Z M 0.75 0.277344 " clip-rule="nonzero"/></clipPath><clipPath id="b997d80909"><path d="M 14.042969 0.277344 C 21.382812 0.277344 27.335938 6.230469 27.335938 13.570312 L 27.335938 466.59375 C 27.335938 473.9375 21.382812 479.886719 14.042969 479.886719 C 6.703125 479.886719 0.75 473.9375 0.75 466.59375 L 0.75 13.570312 C 0.75 6.230469 6.703125 0.277344 14.042969 0.277344 Z M 14.042969 0.277344 " clip-rule="nonzero"/></clipPath><clipPath id="d7f3a2473d"><rect x="0" width="28" y="0" height="480"/></clipPath><clipPath id="d77972e4ed"><path d="M 43.820312 28.410156 L 70.40625 28.410156 L 70.40625 525.542969 L 43.820312 525.542969 Z M 43.820312 28.410156 " clip-rule="nonzero"/></clipPath><clipPath id="05f907b189"><path d="M 57.113281 28.410156 C 64.453125 28.410156 70.40625 34.359375 70.40625 41.703125 L 70.40625 512.25 C 70.40625 519.589844 64.453125 525.542969 57.113281 525.542969 C 49.769531 525.542969 43.820312 519.589844 43.820312 512.25 L 43.820312 41.703125 C 43.820312 34.359375 49.769531 28.410156 57.113281 28.410156 Z M 57.113281 28.410156 " clip-rule="nonzero"/></clipPath><clipPath id="16481fe778"><path d="M 0.820312 0.410156 L 27.40625 0.410156 L 27.40625 497.542969 L 0.820312 497.542969 Z M 0.820312 0.410156 " clip-rule="nonzero"/></clipPath><clipPath id="638ba898ca"><path d="M 14.113281 0.410156 C 21.453125 0.410156 27.40625 6.359375 27.40625 13.703125 L 27.40625 484.25 C 27.40625 491.589844 21.453125 497.542969 14.113281 497.542969 C 6.769531 497.542969 0.820312 491.589844 0.820312 484.25 L 0.820312 13.703125 C 0.820312 6.359375 6.769531 0.410156 14.113281 0.410156 Z M 14.113281 0.410156 " clip-rule="nonzero"/></clipPath><clipPath id="7c38cf5ee8"><rect x="0" width="28" y="0" height="498"/></clipPath><clipPath id="f70c3f1d75"><path d="M 291.621094 572.3125 L 362.40625 572.3125 L 362.40625 593.582031 L 291.621094 593.582031 Z M 291.621094 572.3125 " clip-rule="nonzero"/></clipPath><clipPath id="6759bc8bd0"><path d="M 362.398438 593.582031 C 343.757812 593.582031 325.53125 591.3125 312.351562 587.351562 C 299.171875 583.390625 291.621094 577.914062 291.621094 572.3125 L 362.398438 572.3125 Z M 362.398438 593.582031 " clip-rule="nonzero"/></clipPath><clipPath id="8b591b2c84"><path d="M 0.621094 0.3125 L 71.398438 0.3125 L 71.398438 21.582031 L 0.621094 21.582031 Z M 0.621094 0.3125 " clip-rule="nonzero"/></clipPath><clipPath id="db3001fcc9"><path d="M 71.398438 21.582031 C 52.757812 21.582031 34.53125 19.3125 21.351562 15.351562 C 8.171875 11.390625 0.621094 5.914062 0.621094 0.3125 L 71.398438 0.3125 Z M 71.398438 21.582031 " clip-rule="nonzero"/></clipPath><clipPath id="6c8d187c5e"><rect x="0" width="72" y="0" height="22"/></clipPath><clipPath id="e67729454e"><path d="M 57 28.40625 L 356.992188 28.40625 L 356.992188 93.277344 L 57 93.277344 Z M 57 28.40625 " clip-rule="nonzero"/></clipPath><clipPath id="1d42af0f72"><path d="M 57.101562 28.40625 C 136.082031 28.40625 213.308594 35.328125 269.15625 47.40625 C 325.003906 59.488281 356.992188 76.191406 356.992188 93.277344 L 57.101562 93.277344 Z M 57.101562 28.40625 " clip-rule="nonzero"/></clipPath><clipPath id="9d3377e866"><path d="M 0 0.40625 L 299.992188 0.40625 L 299.992188 65.277344 L 0 65.277344 Z M 0 0.40625 " clip-rule="nonzero"/></clipPath><clipPath id="85113a5b46"><path d="M 0.101562 0.40625 C 79.082031 0.40625 156.308594 7.328125 212.15625 19.40625 C 268.003906 31.488281 299.992188 48.191406 299.992188 65.277344 L 0.101562 65.277344 Z M 0.101562 0.40625 " clip-rule="nonzero"/></clipPath><clipPath id="c6e4be0c3a"><rect x="0" width="300" y="0" height="66"/></clipPath><clipPath id="1d70b01779"><path d="M 57.113281 83.574219 L 371.554688 83.574219 L 371.554688 572.886719 L 57.113281 572.886719 Z M 57.113281 83.574219 " clip-rule="nonzero"/></clipPath><clipPath id="be57748ba7"><path d="M 0.113281 0.574219 L 314.554688 0.574219 L 314.554688 489.886719 L 0.113281 489.886719 Z M 0.113281 0.574219 " clip-rule="nonzero"/></clipPath><clipPath id="7cfc4b025a"><rect x="0" width="315" y="0" height="490"/></clipPath><clipPath id="fe39440502"><path d="M 70.40625 114.902344 L 356.46875 114.902344 L 356.46875 546.300781 L 70.40625 546.300781 Z M 70.40625 114.902344 " clip-rule="nonzero"/></clipPath><clipPath id="69b4f0aa24"><path d="M 0.40625 0.902344 L 286.46875 0.902344 L 286.46875 432.300781 L 0.40625 432.300781 Z M 0.40625 0.902344 " clip-rule="nonzero"/></clipPath><clipPath id="9d9ae7127d"><rect x="0" width="287" y="0" height="433"/></clipPath><clipPath id="882341dc78"><path d="M 69.234375 501.578125 L 356.460938 501.578125 L 356.460938 547.308594 L 69.234375 547.308594 Z M 69.234375 501.578125 " clip-rule="nonzero"/></clipPath><clipPath id="4eee7f8c1a"><path d="M 69.382812 501.578125 C 144.988281 501.578125 218.914062 506.457031 272.375 514.972656 C 325.835938 523.488281 356.460938 535.265625 356.460938 547.308594 L 69.382812 547.308594 Z M 69.382812 501.578125 " clip-rule="nonzero"/></clipPath><clipPath id="80749cf3b8"><path d="M 0.359375 0.578125 L 287.460938 0.578125 L 287.460938 46.308594 L 0.359375 46.308594 Z M 0.359375 0.578125 " clip-rule="nonzero"/></clipPath><clipPath id="2aaf63f9fb"><path d="M 0.382812 0.578125 C 75.988281 0.578125 149.914062 5.457031 203.375 13.972656 C 256.835938 22.488281 287.460938 34.265625 287.460938 46.308594 L 0.382812 46.308594 Z M 0.382812 0.578125 " clip-rule="nonzero"/></clipPath><clipPath id="e4b951422d"><rect x="0" width="288" y="0" height="47"/></clipPath><clipPath id="06d39a5da3"><path d="M 50.242188 524.441406 L 324.578125 524.441406 L 324.578125 550.566406 L 50.242188 550.566406 Z M 50.242188 524.441406 " clip-rule="nonzero"/></clipPath><clipPath id="7b4110a4e1"><path d="M 50.277344 524.441406 C 122.515625 524.441406 193.15625 527.226562 244.238281 532.09375 C 295.320312 536.957031 324.578125 543.6875 324.578125 550.566406 L 50.277344 550.566406 Z M 50.277344 524.441406 " clip-rule="nonzero"/></clipPath><clipPath id="a4c947ba96"><path d="M 0.242188 0.441406 L 274.578125 0.441406 L 274.578125 26.566406 L 0.242188 26.566406 Z M 0.242188 0.441406 " clip-rule="nonzero"/></clipPath><clipPath id="7f09f61c79"><path d="M 0.277344 0.441406 C 72.515625 0.441406 143.15625 3.226562 194.238281 8.09375 C 245.320312 12.957031 274.578125 19.6875 274.578125 26.566406 L 0.277344 26.566406 Z M 0.277344 0.441406 " clip-rule="nonzero"/></clipPath><clipPath id="18d9dbe764"><rect x="0" width="275" y="0" height="27"/></clipPath><clipPath id="b0f07cd7bb"><path d="M 356.46875 83.574219 L 656.886719 83.574219 L 656.886719 572.886719 L 356.46875 572.886719 Z M 356.46875 83.574219 " clip-rule="nonzero"/></clipPath><clipPath id="6338e1268a"><path d="M 0.46875 0.574219 L 300.886719 0.574219 L 300.886719 489.886719 L 0.46875 489.886719 Z M 0.46875 0.574219 " clip-rule="nonzero"/></clipPath><clipPath id="fcc17b4e04"><rect x="0" width="301" y="0" height="490"/></clipPath><clipPath id="07b841e84a"><path d="M 686.664062 93.277344 L 713.25 93.277344 L 713.25 572.964844 L 686.664062 572.964844 Z M 686.664062 93.277344 " clip-rule="nonzero"/></clipPath><clipPath id="364e6a9137"><path d="M 699.957031 93.277344 C 707.296875 93.277344 713.25 99.230469 713.25 106.570312 L 713.25 559.59375 C 713.25 566.9375 707.296875 572.886719 699.957031 572.886719 C 692.617188 572.886719 686.664062 566.9375 686.664062 559.59375 L 686.664062 106.570312 C 686.664062 99.230469 692.617188 93.277344 699.957031 93.277344 Z M 699.957031 93.277344 " clip-rule="nonzero"/></clipPath><clipPath id="85692d1b0a"><path d="M 0.664062 0.277344 L 27.25 0.277344 L 27.25 479.960938 L 0.664062 479.960938 Z M 0.664062 0.277344 " clip-rule="nonzero"/></clipPath><clipPath id="62c765ca6b"><path d="M 13.957031 0.277344 C 21.296875 0.277344 27.25 6.230469 27.25 13.570312 L 27.25 466.59375 C 27.25 473.9375 21.296875 479.886719 13.957031 479.886719 C 6.617188 479.886719 0.664062 473.9375 0.664062 466.59375 L 0.664062 13.570312 C 0.664062 6.230469 6.617188 0.277344 13.957031 0.277344 Z M 13.957031 0.277344 " clip-rule="nonzero"/></clipPath><clipPath id="383f4b4673"><rect x="0" width="28" y="0" height="480"/></clipPath><clipPath id="f4d797b0ff"><path d="M 643.59375 28.410156 L 670.179688 28.410156 L 670.179688 525.542969 L 643.59375 525.542969 Z M 643.59375 28.410156 " clip-rule="nonzero"/></clipPath><clipPath id="c62903354e"><path d="M 656.886719 28.410156 C 664.230469 28.410156 670.179688 34.359375 670.179688 41.703125 L 670.179688 512.25 C 670.179688 519.589844 664.230469 525.542969 656.886719 525.542969 C 649.546875 525.542969 643.59375 519.589844 643.59375 512.25 L 643.59375 41.703125 C 643.59375 34.359375 649.546875 28.410156 656.886719 28.410156 Z M 656.886719 28.410156 " clip-rule="nonzero"/></clipPath><clipPath id="3de28d568a"><path d="M 0.59375 0.410156 L 27.179688 0.410156 L 27.179688 497.542969 L 0.59375 497.542969 Z M 0.59375 0.410156 " clip-rule="nonzero"/></clipPath><clipPath id="6c7ca3ef96"><path d="M 13.886719 0.410156 C 21.230469 0.410156 27.179688 6.359375 27.179688 13.703125 L 27.179688 484.25 C 27.179688 491.589844 21.230469 497.542969 13.886719 497.542969 C 6.546875 497.542969 0.59375 491.589844 0.59375 484.25 L 0.59375 13.703125 C 0.59375 6.359375 6.546875 0.410156 13.886719 0.410156 Z M 13.886719 0.410156 " clip-rule="nonzero"/></clipPath><clipPath id="b8963344a9"><rect x="0" width="28" y="0" height="498"/></clipPath><clipPath id="01f0096ab8"><path d="M 355.09375 572.316406 L 422.390625 572.316406 L 422.390625 593.601562 L 355.09375 593.601562 Z M 355.09375 572.316406 " clip-rule="nonzero"/></clipPath><clipPath id="16ae361f11"><path d="M 422.390625 572.316406 C 422.390625 577.917969 415.214844 583.394531 402.6875 587.355469 C 390.160156 591.316406 372.835938 593.585938 355.121094 593.585938 L 355.121094 572.316406 Z M 422.390625 572.316406 " clip-rule="nonzero"/></clipPath><clipPath id="424cc6e8c1"><path d="M 0.09375 0.316406 L 67.390625 0.316406 L 67.390625 21.601562 L 0.09375 21.601562 Z M 0.09375 0.316406 " clip-rule="nonzero"/></clipPath><clipPath id="5c46e944e2"><path d="M 67.390625 0.316406 C 67.390625 5.917969 60.214844 11.394531 47.6875 15.355469 C 35.160156 19.316406 17.835938 21.585938 0.121094 21.585938 L 0.121094 0.316406 Z M 67.390625 0.316406 " clip-rule="nonzero"/></clipPath><clipPath id="945faabbc7"><rect x="0" width="68" y="0" height="22"/></clipPath><clipPath id="05d4c89473"><path d="M 357 28.15625 L 657 28.15625 L 657 93.277344 L 357 93.277344 Z M 357 28.15625 " clip-rule="nonzero"/></clipPath><clipPath id="5681e36c73"><path d="M 357 93.277344 C 357 76.195312 388.988281 59.488281 444.835938 47.410156 C 500.683594 35.328125 577.910156 28.410156 656.886719 28.410156 L 656.886719 93.277344 Z M 357 93.277344 " clip-rule="nonzero"/></clipPath><clipPath id="590af00f93"><path d="M 0 0.398438 L 300 0.398438 L 300 65.277344 L 0 65.277344 Z M 0 0.398438 " clip-rule="nonzero"/></clipPath><clipPath id="c4be49ab33"><path d="M 0 65.277344 C 0 48.195312 31.988281 31.488281 87.835938 19.410156 C 143.683594 7.328125 220.910156 0.410156 299.886719 0.410156 L 299.886719 65.277344 Z M 0 65.277344 " clip-rule="nonzero"/></clipPath><clipPath id="75e8e5aa03"><rect x="0" width="300" y="0" height="66"/></clipPath><clipPath id="ed3474b6be"><path d="M 388.570312 524.335938 L 662.90625 524.335938 L 662.90625 550.566406 L 388.570312 550.566406 Z M 388.570312 524.335938 " clip-rule="nonzero"/></clipPath><clipPath id="3d8d69187f"><path d="M 388.570312 550.566406 C 388.570312 543.683594 417.824219 536.957031 468.898438 532.089844 C 519.972656 527.226562 590.601562 524.4375 662.832031 524.4375 L 662.832031 550.566406 Z M 388.570312 550.566406 " clip-rule="nonzero"/></clipPath><clipPath id="04a61f11e5"><path d="M 0.570312 0.335938 L 274.878906 0.335938 L 274.878906 26.566406 L 0.570312 26.566406 Z M 0.570312 0.335938 " clip-rule="nonzero"/></clipPath><clipPath id="c9b79cd858"><path d="M 0.570312 26.566406 C 0.570312 19.683594 29.824219 12.957031 80.898438 8.089844 C 131.972656 3.226562 202.601562 0.4375 274.832031 0.4375 L 274.832031 26.566406 Z M 0.570312 26.566406 " clip-rule="nonzero"/></clipPath><clipPath id="09c03a7b68"><rect x="0" width="275" y="0" height="27"/></clipPath><clipPath id="527bceee30"><path d="M 357 546.300781 L 713.3125 546.300781 L 713.3125 572.886719 L 357 572.886719 Z M 357 546.300781 " clip-rule="nonzero"/></clipPath><clipPath id="ed835736a7"><path d="M 370.292969 546.300781 L 699.957031 546.300781 C 707.296875 546.300781 713.25 552.253906 713.25 559.59375 C 713.25 566.9375 707.296875 572.886719 699.957031 572.886719 L 370.292969 572.886719 C 362.953125 572.886719 357 566.9375 357 559.59375 C 357 552.253906 362.953125 546.300781 370.292969 546.300781 Z M 370.292969 546.300781 " clip-rule="nonzero"/></clipPath><clipPath id="26d18bb352"><path d="M 0 0.300781 L 356.28125 0.300781 L 356.28125 26.886719 L 0 26.886719 Z M 0 0.300781 " clip-rule="nonzero"/></clipPath><clipPath id="82184697e9"><path d="M 13.292969 0.300781 L 342.957031 0.300781 C 350.296875 0.300781 356.25 6.253906 356.25 13.59375 C 356.25 20.9375 350.296875 26.886719 342.957031 26.886719 L 13.292969 26.886719 C 5.953125 26.886719 0 20.9375 0 13.59375 C 0 6.253906 5.953125 0.300781 13.292969 0.300781 Z M 13.292969 0.300781 " clip-rule="nonzero"/></clipPath><clipPath id="a0b7bc1546"><rect x="0" width="357" y="0" height="27"/></clipPath><clipPath id="55e0644ac3"><path d="M 0.75 546.300781 L 357 546.300781 L 357 572.886719 L 0.75 572.886719 Z M 0.75 546.300781 " clip-rule="nonzero"/></clipPath><clipPath id="5fffcb375e"><path d="M 14.042969 546.300781 L 343.707031 546.300781 C 351.046875 546.300781 357 552.253906 357 559.59375 C 357 566.9375 351.046875 572.886719 343.707031 572.886719 L 14.042969 572.886719 C 6.703125 572.886719 0.75 566.9375 0.75 559.59375 C 0.75 552.253906 6.703125 546.300781 14.042969 546.300781 Z M 14.042969 546.300781 " clip-rule="nonzero"/></clipPath><clipPath id="092e8e2026"><path d="M 0.75 0.300781 L 357 0.300781 L 357 26.886719 L 0.75 26.886719 Z M 0.75 0.300781 " clip-rule="nonzero"/></clipPath><clipPath id="b4947de6c3"><path d="M 14.042969 0.300781 L 343.707031 0.300781 C 351.046875 0.300781 357 6.253906 357 13.59375 C 357 20.9375 351.046875 26.886719 343.707031 26.886719 L 14.042969 26.886719 C 6.703125 26.886719 0.75 20.9375 0.75 13.59375 C 0.75 6.253906 6.703125 0.300781 14.042969 0.300781 Z M 14.042969 0.300781 " clip-rule="nonzero"/></clipPath><clipPath id="95e1ccc75c"><rect x="0" width="357" y="0" height="27"/></clipPath><clipPath id="e2290afb95"><path d="M 70.273438 51.144531 L 356.457031 51.144531 L 356.457031 114.90625 L 70.273438 114.90625 Z M 70.273438 51.144531 " clip-rule="nonzero"/></clipPath><clipPath id="41f90e9ca3"><path d="M 70.394531 51.144531 C 145.734375 51.144531 219.402344 57.945312 272.671875 69.820312 C 325.945312 81.695312 356.457031 98.113281 356.457031 114.90625 L 70.394531 114.90625 Z M 70.394531 51.144531 " clip-rule="nonzero"/></clipPath><clipPath id="390af8a016"><path d="M 0.320312 0.144531 L 286.457031 0.144531 L 286.457031 63.90625 L 0.320312 63.90625 Z M 0.320312 0.144531 " clip-rule="nonzero"/></clipPath><clipPath id="f85a7b5a76"><path d="M 0.394531 0.144531 C 75.734375 0.144531 149.402344 6.945312 202.671875 18.820312 C 255.945312 30.695312 286.457031 47.113281 286.457031 63.90625 L 0.394531 63.90625 Z M 0.394531 0.144531 " clip-rule="nonzero"/></clipPath><clipPath id="f756bf35f4"><rect x="0" width="287" y="0" height="64"/></clipPath><clipPath id="e38739779b"><path d="M 70.40625 98.660156 L 345.828125 98.660156 L 345.828125 166.824219 L 70.40625 166.824219 Z M 70.40625 98.660156 " clip-rule="nonzero"/></clipPath><clipPath id="f3e12f38a5"><path d="M 0.40625 0.660156 L 275.828125 0.660156 L 275.828125 68.824219 L 0.40625 68.824219 Z M 0.40625 0.660156 " clip-rule="nonzero"/></clipPath><clipPath id="06e0f4756e"><rect x="0" width="276" y="0" height="69"/></clipPath><clipPath id="6f29f04cfd"><path d="M 345.808594 107.96875 L 356.457031 107.96875 L 356.457031 118.140625 L 345.808594 118.140625 Z M 345.808594 107.96875 " clip-rule="nonzero"/></clipPath><clipPath id="64b7326cdf"><path d="M 345.816406 107.96875 C 348.617188 107.96875 351.359375 109.050781 353.339844 110.945312 C 355.320312 112.839844 356.457031 115.460938 356.457031 118.140625 L 345.816406 118.140625 Z M 345.816406 107.96875 " clip-rule="nonzero"/></clipPath><clipPath id="bd46d656ae"><path d="M 0.808594 0.96875 L 11.457031 0.96875 L 11.457031 11.140625 L 0.808594 11.140625 Z M 0.808594 0.96875 " clip-rule="nonzero"/></clipPath><clipPath id="d6858ab560"><path d="M 0.816406 0.96875 C 3.617188 0.96875 6.359375 2.050781 8.339844 3.945312 C 10.320312 5.839844 11.457031 8.460938 11.457031 11.140625 L 0.816406 11.140625 Z M 0.816406 0.96875 " clip-rule="nonzero"/></clipPath><clipPath id="0ccf56eb83"><rect x="0" width="12" y="0" height="12"/></clipPath><clipPath id="1dbc1defa8"><path d="M 143 0.800781 L 284 0.800781 L 284 527 L 143 527 Z M 143 0.800781 " clip-rule="nonzero"/></clipPath><clipPath id="8e3f05821b"><rect x="0" width="141" y="0" height="527"/></clipPath><clipPath id="573dcc0e11"><rect x="0" width="714" y="0" height="594"/></clipPath></defs><g clip-path="url(#60a5023017)"><g transform="matrix(1, 0, 0, 1, 0, -0.000000000000042435)"><g clip-path="url(#4ac1f10663)"><g clip-path="url(#fd94fe2a58)"><g clip-path="url(#b6321ccb2c)"><rect x="-165" width="1080" fill="#4a90e2" height="1079.999992" y="-164.999999" fill-opacity="1"/></g></g></g></g></g><g transform="matrix(1, 0, 0, 1, 18, 64)"><g clip-path="url(#573dcc0e11)"><g clip-path="url(#0c5024e921)"><g clip-path="url(#f545e7cbb8)"><g transform="matrix(1, 0, 0, 1, -0.000000000000003553, 93)"><g clip-path="url(#d7f3a2473d)"><g clip-path="url(#c7aae07778)"><g clip-path="url(#b997d80909)"><path fill="#fefefe" d="M 0.75 0.277344 L 27.335938 0.277344 L 27.335938 479.863281 L 0.75 479.863281 Z M 0.75 0.277344 " fill-opacity="1" fill-rule="nonzero"/></g></g></g></g></g></g><g clip-path="url(#d77972e4ed)"><g clip-path="url(#05f907b189)"><g transform="matrix(1, 0, 0, 1, 43, 28)"><g clip-path="url(#7c38cf5ee8)"><g clip-path="url(#16481fe778)"><g clip-path="url(#638ba898ca)"><path fill="#fefefe" d="M 0.820312 0.410156 L 27.40625 0.410156 L 27.40625 497.542969 L 0.820312 497.542969 Z M 0.820312 0.410156 " fill-opacity="1" fill-rule="nonzero"/></g></g></g></g></g></g><g clip-path="url(#f70c3f1d75)"><g clip-path="url(#6759bc8bd0)"><g transform="matrix(1, 0, 0, 1, 291, 572)"><g clip-path="url(#6c8d187c5e)"><g clip-path="url(#8b591b2c84)"><g clip-path="url(#db3001fcc9)"><path fill="#fefefe" d="M 0.621094 21.582031 L 0.621094 0.3125 L 71.40625 0.3125 L 71.40625 21.582031 Z M 0.621094 21.582031 " fill-opacity="1" fill-rule="nonzero"/></g></g></g></g></g></g><g clip-path="url(#e67729454e)"><g clip-path="url(#1d42af0f72)"><g transform="matrix(1, 0, 0, 1, 57, 28)"><g clip-path="url(#c6e4be0c3a)"><g clip-path="url(#9d3377e866)"><g clip-path="url(#85113a5b46)"><path fill="#fefefe" d="M 299.992188 0.40625 L 299.992188 65.277344 L 0.222656 65.277344 L 0.222656 0.40625 Z M 299.992188 0.40625 " fill-opacity="1" fill-rule="nonzero"/></g></g></g></g></g></g><g clip-path="url(#1d70b01779)"><g transform="matrix(1, 0, 0, 1, 57, 83)"><g clip-path="url(#7cfc4b025a)"><g clip-path="url(#be57748ba7)"><path fill="#fefefe" d="M 0.113281 0.574219 L 314.554688 0.574219 L 314.554688 489.4375 L 0.113281 489.4375 Z M 0.113281 0.574219 " fill-opacity="1" fill-rule="nonzero"/></g></g></g></g><g clip-path="url(#fe39440502)"><g transform="matrix(1, 0, 0, 1, 70, 114)"><g clip-path="url(#9d9ae7127d)"><g clip-path="url(#69b4f0aa24)"><path fill="#4a90e2" d="M 0.40625 0.902344 L 286.46875 0.902344 L 286.46875 432.234375 L 0.40625 432.234375 Z M 0.40625 0.902344 " fill-opacity="1" fill-rule="nonzero"/></g></g></g></g><g clip-path="url(#882341dc78)"><g clip-path="url(#4eee7f8c1a)"><g transform="matrix(1, 0, 0, 1, 69, 501)"><g clip-path="url(#e4b951422d)"><g clip-path="url(#80749cf3b8)"><g clip-path="url(#2aaf63f9fb)"><path fill="#fefefe" d="M 287.460938 0.578125 L 287.460938 46.308594 L 0.410156 46.308594 L 0.410156 0.578125 Z M 287.460938 0.578125 " fill-opacity="1" fill-rule="nonzero"/></g></g></g></g></g></g><g clip-path="url(#06d39a5da3)"><g clip-path="url(#7b4110a4e1)"><g transform="matrix(1, 0, 0, 1, 50, 524)"><g clip-path="url(#18d9dbe764)"><g clip-path="url(#a4c947ba96)"><g clip-path="url(#7f09f61c79)"><path fill="#4a90e2" d="M 274.578125 0.441406 L 274.578125 26.566406 L 0.242188 26.566406 L 0.242188 0.441406 Z M 274.578125 0.441406 " fill-opacity="1" fill-rule="nonzero"/></g></g></g></g></g></g><g clip-path="url(#b0f07cd7bb)"><g transform="matrix(1, 0, 0, 1, 356, 83)"><g clip-path="url(#fcc17b4e04)"><g clip-path="url(#6338e1268a)"><path fill="#fefefe" d="M 0.46875 0.574219 L 300.886719 0.574219 L 300.886719 489.929688 L 0.46875 489.929688 Z M 0.46875 0.574219 " fill-opacity="1" fill-rule="nonzero"/></g></g></g></g><g clip-path="url(#07b841e84a)"><g clip-path="url(#364e6a9137)"><g transform="matrix(1, 0, 0, 1, 686, 93)"><g clip-path="url(#383f4b4673)"><g clip-path="url(#85692d1b0a)"><g clip-path="url(#62c765ca6b)"><path fill="#fefefe" d="M 0.664062 0.277344 L 27.25 0.277344 L 27.25 479.863281 L 0.664062 479.863281 Z M 0.664062 0.277344 " fill-opacity="1" fill-rule="nonzero"/></g></g></g></g></g></g><g clip-path="url(#f4d797b0ff)"><g clip-path="url(#c62903354e)"><g transform="matrix(1, 0, 0, 1, 643, 28)"><g clip-path="url(#b8963344a9)"><g clip-path="url(#3de28d568a)"><g clip-path="url(#6c7ca3ef96)"><path fill="#fefefe" d="M 0.59375 0.410156 L 27.179688 0.410156 L 27.179688 497.542969 L 0.59375 497.542969 Z M 0.59375 0.410156 " fill-opacity="1" fill-rule="nonzero"/></g></g></g></g></g></g><g clip-path="url(#01f0096ab8)"><g clip-path="url(#16ae361f11)"><g transform="matrix(1, 0, 0, 1, 355, 572)"><g clip-path="url(#945faabbc7)"><g clip-path="url(#424cc6e8c1)"><g clip-path="url(#5c46e944e2)"><path fill="#fefefe" d="M 67.390625 21.585938 L 0.09375 21.585938 L 0.09375 0.316406 L 67.390625 0.316406 Z M 67.390625 21.585938 " fill-opacity="1" fill-rule="nonzero"/></g></g></g></g></g></g><g clip-path="url(#05d4c89473)"><g clip-path="url(#5681e36c73)"><g transform="matrix(1, 0, 0, 1, 357, 28)"><g clip-path="url(#75e8e5aa03)"><g clip-path="url(#590af00f93)"><g clip-path="url(#c4be49ab33)"><path fill="#fefefe" d="M 0 0.410156 L 299.765625 0.410156 L 299.765625 65.277344 L 0 65.277344 Z M 0 0.410156 " fill-opacity="1" fill-rule="nonzero"/></g></g></g></g></g></g><g clip-path="url(#ed3474b6be)"><g clip-path="url(#3d8d69187f)"><g transform="matrix(1, 0, 0, 1, 388, 524)"><g clip-path="url(#09c03a7b68)"><g clip-path="url(#04a61f11e5)"><g clip-path="url(#c9b79cd858)"><path fill="#4a90e2" d="M 0.570312 0.4375 L 274.804688 0.4375 L 274.804688 26.566406 L 0.570312 26.566406 Z M 0.570312 0.4375 " fill-opacity="1" fill-rule="nonzero"/></g></g></g></g></g></g><g clip-path="url(#527bceee30)"><g clip-path="url(#ed835736a7)"><g transform="matrix(1, 0, 0, 1, 357, 546)"><g clip-path="url(#a0b7bc1546)"><g clip-path="url(#26d18bb352)"><g clip-path="url(#82184697e9)"><path fill="#fefefe" d="M 0 0.300781 L 356.207031 0.300781 L 356.207031 26.886719 L 0 26.886719 Z M 0 0.300781 " fill-opacity="1" fill-rule="nonzero"/></g></g></g></g></g></g><g clip-path="url(#55e0644ac3)"><g clip-path="url(#5fffcb375e)"><g transform="matrix(1, 0, 0, 1, -0.000000000000003553, 546)"><g clip-path="url(#95e1ccc75c)"><g clip-path="url(#092e8e2026)"><g clip-path="url(#b4947de6c3)"><path fill="#fefefe" d="M 0.75 0.300781 L 356.957031 0.300781 L 356.957031 26.886719 L 0.75 26.886719 Z M 0.75 0.300781 " fill-opacity="1" fill-rule="nonzero"/></g></g></g></g></g></g><g clip-path="url(#e2290afb95)"><g clip-path="url(#41f90e9ca3)"><g transform="matrix(1, 0, 0, 1, 70, 51)"><g clip-path="url(#f756bf35f4)"><g clip-path="url(#390af8a016)"><g clip-path="url(#f85a7b5a76)"><path fill="#4a90e2" d="M 286.457031 0.144531 L 286.457031 63.90625 L 0.273438 63.90625 L 0.273438 0.144531 Z M 286.457031 0.144531 " fill-opacity="1" fill-rule="nonzero"/></g></g></g></g></g></g><g clip-path="url(#e38739779b)"><g transform="matrix(1, 0, 0, 1, 70, 98)"><g clip-path="url(#06e0f4756e)"><g clip-path="url(#f3e12f38a5)"><path fill="#4a90e2" d="M 0.40625 0.660156 L 275.730469 0.660156 L 275.730469 68.824219 L 0.40625 68.824219 Z M 0.40625 0.660156 " fill-opacity="1" fill-rule="nonzero"/></g></g></g></g><g clip-path="url(#6f29f04cfd)"><g clip-path="url(#64b7326cdf)"><g transform="matrix(1, 0, 0, 1, 345, 107)"><g clip-path="url(#0ccf56eb83)"><g clip-path="url(#bd46d656ae)"><g clip-path="url(#d6858ab560)"><path fill="#4a90e2" d="M 11.457031 0.96875 L 11.457031 11.140625 L 0.808594 11.140625 L 0.808594 0.96875 Z M 11.457031 0.96875 " fill-opacity="1" fill-rule="nonzero"/></g></g></g></g></g></g><g clip-path="url(#1dbc1defa8)"><g transform="matrix(1, 0, 0, 1, 143, -0.000000000000056843)"><g clip-path="url(#8e3f05821b)"><g fill="#ffffff" fill-opacity="1"><g transform="translate(1.662369, 412.352339)"><g><path d="M 97.828125 64.515625 L 9.921875 -285.34375 L 44.3125 -285.34375 L 132.578125 64.515625 Z M 97.828125 64.515625 "/></g></g></g></g></g></g></g></g></svg>