<svg xmlns="http://www.w3.org/2000/svg" xmlns:xlink="http://www.w3.org/1999/xlink" width="1113" zoomAndPan="magnify" viewBox="0 0 834.75 817.499971" height="1090" preserveAspectRatio="xMidYMid meet" version="1.0"><defs><g/><clipPath id="50f1712c64"><path d="M 84.703125 67.054688 L 834.246094 67.054688 L 834.246094 816.59375 L 84.703125 816.59375 Z M 84.703125 67.054688 " clip-rule="nonzero"/></clipPath><clipPath id="93da6a42fa"><path d="M 201.820312 67.054688 L 717.128906 67.054688 C 781.808594 67.054688 834.246094 119.488281 834.246094 184.167969 L 834.246094 699.476562 C 834.246094 764.160156 781.808594 816.59375 717.128906 816.59375 L 201.820312 816.59375 C 137.136719 816.59375 84.703125 764.160156 84.703125 699.476562 L 84.703125 184.167969 C 84.703125 119.488281 137.136719 67.054688 201.820312 67.054688 Z M 201.820312 67.054688 " clip-rule="nonzero"/></clipPath><clipPath id="54b25aeea0"><path d="M 0.703125 0.0546875 L 750.246094 0.0546875 L 750.246094 749.59375 L 0.703125 749.59375 Z M 0.703125 0.0546875 " clip-rule="nonzero"/></clipPath><clipPath id="3cbc82c6a1"><path d="M 117.820312 0.0546875 L 633.128906 0.0546875 C 697.808594 0.0546875 750.246094 52.488281 750.246094 117.167969 L 750.246094 632.476562 C 750.246094 697.160156 697.808594 749.59375 633.128906 749.59375 L 117.820312 749.59375 C 53.136719 749.59375 0.703125 697.160156 0.703125 632.476562 L 0.703125 117.167969 C 0.703125 52.488281 53.136719 0.0546875 117.820312 0.0546875 Z M 117.820312 0.0546875 " clip-rule="nonzero"/></clipPath><clipPath id="0782eece7f"><rect x="0" width="751" y="0" height="750"/></clipPath><clipPath id="f04dd66e15"><path d="M 208.378906 287.042969 L 227.117188 287.042969 L 227.117188 625.140625 L 208.378906 625.140625 Z M 208.378906 287.042969 " clip-rule="nonzero"/></clipPath><clipPath id="8f3da9dc33"><path d="M 217.746094 287.042969 C 222.921875 287.042969 227.117188 291.238281 227.117188 296.414062 L 227.117188 615.71875 C 227.117188 620.890625 222.921875 625.085938 217.746094 625.085938 C 212.574219 625.085938 208.378906 620.890625 208.378906 615.71875 L 208.378906 296.414062 C 208.378906 291.238281 212.574219 287.042969 217.746094 287.042969 Z M 217.746094 287.042969 " clip-rule="nonzero"/></clipPath><clipPath id="d3e37e529b"><path d="M 0.378906 0.0429688 L 19.117188 0.0429688 L 19.117188 338.140625 L 0.378906 338.140625 Z M 0.378906 0.0429688 " clip-rule="nonzero"/></clipPath><clipPath id="236c32664a"><path d="M 9.746094 0.0429688 C 14.921875 0.0429688 19.117188 4.238281 19.117188 9.414062 L 19.117188 328.71875 C 19.117188 333.890625 14.921875 338.085938 9.746094 338.085938 C 4.574219 338.085938 0.378906 333.890625 0.378906 328.71875 L 0.378906 9.414062 C 0.378906 4.238281 4.574219 0.0429688 9.746094 0.0429688 Z M 9.746094 0.0429688 " clip-rule="nonzero"/></clipPath><clipPath id="59345e3686"><rect x="0" width="20" y="0" height="339"/></clipPath><clipPath id="acf81ce1f1"><path d="M 238.734375 241.320312 L 257.472656 241.320312 L 257.472656 591.71875 L 238.734375 591.71875 Z M 238.734375 241.320312 " clip-rule="nonzero"/></clipPath><clipPath id="83187f5641"><path d="M 248.101562 241.320312 C 253.277344 241.320312 257.472656 245.515625 257.472656 250.691406 L 257.472656 582.347656 C 257.472656 587.519531 253.277344 591.714844 248.101562 591.714844 C 242.929688 591.714844 238.734375 587.519531 238.734375 582.347656 L 238.734375 250.691406 C 238.734375 245.515625 242.929688 241.320312 248.101562 241.320312 Z M 248.101562 241.320312 " clip-rule="nonzero"/></clipPath><clipPath id="116a6a43c2"><path d="M 0.734375 0.320312 L 19.472656 0.320312 L 19.472656 350.71875 L 0.734375 350.71875 Z M 0.734375 0.320312 " clip-rule="nonzero"/></clipPath><clipPath id="d169994c23"><path d="M 10.101562 0.320312 C 15.277344 0.320312 19.472656 4.515625 19.472656 9.691406 L 19.472656 341.347656 C 19.472656 346.519531 15.277344 350.714844 10.101562 350.714844 C 4.929688 350.714844 0.734375 346.519531 0.734375 341.347656 L 0.734375 9.691406 C 0.734375 4.515625 4.929688 0.320312 10.101562 0.320312 Z M 10.101562 0.320312 " clip-rule="nonzero"/></clipPath><clipPath id="144cfe4847"><rect x="0" width="20" y="0" height="351"/></clipPath><clipPath id="8944690d85"><path d="M 413.394531 624.683594 L 463.285156 624.683594 L 463.285156 639.675781 L 413.394531 639.675781 Z M 413.394531 624.683594 " clip-rule="nonzero"/></clipPath><clipPath id="3ec9a5a817"><path d="M 463.277344 639.675781 C 450.140625 639.675781 437.292969 638.078125 428.003906 635.285156 C 418.714844 632.492188 413.394531 628.632812 413.394531 624.683594 L 463.277344 624.683594 Z M 463.277344 639.675781 " clip-rule="nonzero"/></clipPath><clipPath id="880f2811c9"><path d="M 0.394531 0.683594 L 50.285156 0.683594 L 50.285156 15.675781 L 0.394531 15.675781 Z M 0.394531 0.683594 " clip-rule="nonzero"/></clipPath><clipPath id="64cbe19608"><path d="M 50.277344 15.675781 C 37.140625 15.675781 24.292969 14.078125 15.003906 11.285156 C 5.714844 8.492188 0.394531 4.632812 0.394531 0.683594 L 50.277344 0.683594 Z M 50.277344 15.675781 " clip-rule="nonzero"/></clipPath><clipPath id="5f4fe120ac"><rect x="0" width="51" y="0" height="16"/></clipPath><clipPath id="4c47bd3520"><path d="M 248.007812 241.320312 L 459.472656 241.320312 L 459.472656 287.042969 L 248.007812 287.042969 Z M 248.007812 241.320312 " clip-rule="nonzero"/></clipPath><clipPath id="a230ae04ef"><path d="M 248.101562 241.320312 C 303.769531 241.320312 358.203125 246.199219 397.566406 254.710938 C 436.925781 263.226562 459.472656 275 459.472656 287.042969 L 248.101562 287.042969 Z M 248.101562 241.320312 " clip-rule="nonzero"/></clipPath><clipPath id="a643ebc882"><path d="M 0.0078125 0.320312 L 211.472656 0.320312 L 211.472656 46.042969 L 0.0078125 46.042969 Z M 0.0078125 0.320312 " clip-rule="nonzero"/></clipPath><clipPath id="53ebda10c2"><path d="M 0.101562 0.320312 C 55.769531 0.320312 110.203125 5.199219 149.566406 13.710938 C 188.925781 22.226562 211.472656 34 211.472656 46.042969 L 0.101562 46.042969 Z M 0.101562 0.320312 " clip-rule="nonzero"/></clipPath><clipPath id="96d9888f0b"><rect x="0" width="212" y="0" height="47"/></clipPath><clipPath id="af600e4243"><path d="M 248.101562 280.203125 L 469.734375 280.203125 L 469.734375 625.085938 L 248.101562 625.085938 Z M 248.101562 280.203125 " clip-rule="nonzero"/></clipPath><clipPath id="bd933d55fa"><path d="M 0.101562 0.203125 L 221.734375 0.203125 L 221.734375 345 L 0.101562 345 Z M 0.101562 0.203125 " clip-rule="nonzero"/></clipPath><clipPath id="9ac23823de"><rect x="0" width="222" y="0" height="346"/></clipPath><clipPath id="259652a395"><path d="M 257.472656 302.285156 L 459.097656 302.285156 L 459.097656 606.347656 L 257.472656 606.347656 Z M 257.472656 302.285156 " clip-rule="nonzero"/></clipPath><clipPath id="7965270822"><path d="M 0.472656 0.285156 L 202.097656 0.285156 L 202.097656 304.347656 L 0.472656 304.347656 Z M 0.472656 0.285156 " clip-rule="nonzero"/></clipPath><clipPath id="47025e79ac"><rect x="0" width="203" y="0" height="305"/></clipPath><clipPath id="78a4f6a1d2"><path d="M 256.652344 574.824219 L 459.097656 574.824219 L 459.097656 607.054688 L 256.652344 607.054688 Z M 256.652344 574.824219 " clip-rule="nonzero"/></clipPath><clipPath id="67107af12a"><path d="M 256.757812 574.824219 C 310.046875 574.824219 362.152344 578.261719 399.835938 584.261719 C 437.515625 590.265625 459.097656 598.566406 459.097656 607.054688 L 256.757812 607.054688 Z M 256.757812 574.824219 " clip-rule="nonzero"/></clipPath><clipPath id="d204a0bf13"><path d="M 0.652344 0.824219 L 203.097656 0.824219 L 203.097656 33.054688 L 0.652344 33.054688 Z M 0.652344 0.824219 " clip-rule="nonzero"/></clipPath><clipPath id="d594e7f85b"><path d="M 0.757812 0.824219 C 54.046875 0.824219 106.152344 4.261719 143.835938 10.261719 C 181.515625 16.265625 203.097656 24.566406 203.097656 33.054688 L 0.757812 33.054688 Z M 0.757812 0.824219 " clip-rule="nonzero"/></clipPath><clipPath id="08f6b7277c"><rect x="0" width="204" y="0" height="34"/></clipPath><clipPath id="6fcf2a8ac9"><path d="M 243.261719 590.9375 L 436.621094 590.9375 L 436.621094 609.355469 L 243.261719 609.355469 Z M 243.261719 590.9375 " clip-rule="nonzero"/></clipPath><clipPath id="821707cfac"><path d="M 243.285156 590.9375 C 294.203125 590.9375 343.992188 592.902344 379.996094 596.332031 C 416 599.761719 436.621094 604.503906 436.621094 609.355469 L 243.285156 609.355469 Z M 243.285156 590.9375 " clip-rule="nonzero"/></clipPath><clipPath id="5eb03764a2"><path d="M 0.261719 0.9375 L 193.621094 0.9375 L 193.621094 19.355469 L 0.261719 19.355469 Z M 0.261719 0.9375 " clip-rule="nonzero"/></clipPath><clipPath id="b9face01ba"><path d="M 0.285156 0.9375 C 51.203125 0.9375 100.992188 2.902344 136.996094 6.332031 C 173 9.761719 193.621094 14.503906 193.621094 19.355469 L 0.285156 19.355469 Z M 0.285156 0.9375 " clip-rule="nonzero"/></clipPath><clipPath id="e573c4648b"><rect x="0" width="194" y="0" height="20"/></clipPath><clipPath id="dd18b9b52c"><path d="M 459.097656 280.203125 L 670.84375 280.203125 L 670.84375 625.085938 L 459.097656 625.085938 Z M 459.097656 280.203125 " clip-rule="nonzero"/></clipPath><clipPath id="bd913c6be7"><path d="M 0.0976562 0.203125 L 211.84375 0.203125 L 211.84375 345.085938 L 0.0976562 345.085938 Z M 0.0976562 0.203125 " clip-rule="nonzero"/></clipPath><clipPath id="36760a89ce"><rect x="0" width="212" y="0" height="346"/></clipPath><clipPath id="e913fd6c49"><path d="M 691.832031 287.042969 L 710.570312 287.042969 L 710.570312 625.140625 L 691.832031 625.140625 Z M 691.832031 287.042969 " clip-rule="nonzero"/></clipPath><clipPath id="871d86269d"><path d="M 701.199219 287.042969 C 706.375 287.042969 710.570312 291.238281 710.570312 296.414062 L 710.570312 615.71875 C 710.570312 620.890625 706.375 625.085938 701.199219 625.085938 C 696.027344 625.085938 691.832031 620.890625 691.832031 615.71875 L 691.832031 296.414062 C 691.832031 291.238281 696.027344 287.042969 701.199219 287.042969 Z M 701.199219 287.042969 " clip-rule="nonzero"/></clipPath><clipPath id="bba04831f6"><path d="M 0.832031 0.0429688 L 19.570312 0.0429688 L 19.570312 338.140625 L 0.832031 338.140625 Z M 0.832031 0.0429688 " clip-rule="nonzero"/></clipPath><clipPath id="c228ae8168"><path d="M 10.199219 0.0429688 C 15.375 0.0429688 19.570312 4.238281 19.570312 9.414062 L 19.570312 328.71875 C 19.570312 333.890625 15.375 338.085938 10.199219 338.085938 C 5.027344 338.085938 0.832031 333.890625 0.832031 328.71875 L 0.832031 9.414062 C 0.832031 4.238281 5.027344 0.0429688 10.199219 0.0429688 Z M 10.199219 0.0429688 " clip-rule="nonzero"/></clipPath><clipPath id="6dad334d11"><rect x="0" width="20" y="0" height="339"/></clipPath><clipPath id="9175b92280"><path d="M 661.476562 241.320312 L 680.214844 241.320312 L 680.214844 591.71875 L 661.476562 591.71875 Z M 661.476562 241.320312 " clip-rule="nonzero"/></clipPath><clipPath id="f64e742698"><path d="M 670.84375 241.320312 C 676.019531 241.320312 680.214844 245.515625 680.214844 250.691406 L 680.214844 582.347656 C 680.214844 587.519531 676.019531 591.714844 670.84375 591.714844 C 665.671875 591.714844 661.476562 587.519531 661.476562 582.347656 L 661.476562 250.691406 C 661.476562 245.515625 665.671875 241.320312 670.84375 241.320312 Z M 670.84375 241.320312 " clip-rule="nonzero"/></clipPath><clipPath id="e59f67815a"><path d="M 0.476562 0.320312 L 19.214844 0.320312 L 19.214844 350.71875 L 0.476562 350.71875 Z M 0.476562 0.320312 " clip-rule="nonzero"/></clipPath><clipPath id="e2f31f516c"><path d="M 9.84375 0.320312 C 15.019531 0.320312 19.214844 4.515625 19.214844 9.691406 L 19.214844 341.347656 C 19.214844 346.519531 15.019531 350.714844 9.84375 350.714844 C 4.671875 350.714844 0.476562 346.519531 0.476562 341.347656 L 0.476562 9.691406 C 0.476562 4.515625 4.671875 0.320312 9.84375 0.320312 Z M 9.84375 0.320312 " clip-rule="nonzero"/></clipPath><clipPath id="9ea7cb835c"><rect x="0" width="20" y="0" height="351"/></clipPath><clipPath id="efb8aab20a"><path d="M 458.136719 624.6875 L 505.566406 624.6875 L 505.566406 639.738281 L 458.136719 639.738281 Z M 458.136719 624.6875 " clip-rule="nonzero"/></clipPath><clipPath id="551da7a237"><path d="M 505.566406 624.6875 C 505.566406 628.636719 500.507812 632.496094 491.679688 635.289062 C 482.851562 638.078125 470.640625 639.679688 458.15625 639.679688 L 458.15625 624.6875 Z M 505.566406 624.6875 " clip-rule="nonzero"/></clipPath><clipPath id="5530a67c52"><path d="M 0.136719 0.6875 L 47.566406 0.6875 L 47.566406 15.6875 L 0.136719 15.6875 Z M 0.136719 0.6875 " clip-rule="nonzero"/></clipPath><clipPath id="f3a9fe7287"><path d="M 47.566406 0.6875 C 47.566406 4.636719 42.507812 8.496094 33.679688 11.289062 C 24.851562 14.078125 12.640625 15.679688 0.15625 15.679688 L 0.15625 0.6875 Z M 47.566406 0.6875 " clip-rule="nonzero"/></clipPath><clipPath id="b3e3c2faa0"><rect x="0" width="48" y="0" height="16"/></clipPath><clipPath id="6114dcab6b"><path d="M 459.472656 241.144531 L 670.9375 241.144531 L 670.9375 287.042969 L 459.472656 287.042969 Z M 459.472656 241.144531 " clip-rule="nonzero"/></clipPath><clipPath id="f54fd58e33"><path d="M 459.472656 287.042969 C 459.472656 275 482.019531 263.226562 521.382812 254.710938 C 560.746094 246.199219 615.179688 241.320312 670.84375 241.320312 L 670.84375 287.042969 Z M 459.472656 287.042969 " clip-rule="nonzero"/></clipPath><clipPath id="2e3619ba85"><path d="M 0.472656 0.292969 L 211.9375 0.292969 L 211.9375 46.042969 L 0.472656 46.042969 Z M 0.472656 0.292969 " clip-rule="nonzero"/></clipPath><clipPath id="73c54121a3"><path d="M 0.472656 46.042969 C 0.472656 34 23.019531 22.226562 62.382812 13.710938 C 101.746094 5.199219 156.179688 0.320312 211.84375 0.320312 L 211.84375 46.042969 Z M 0.472656 46.042969 " clip-rule="nonzero"/></clipPath><clipPath id="d7ac5d866a"><rect x="0" width="212" y="0" height="47"/></clipPath><clipPath id="74d4876016"><path d="M 505.570312 590.867188 L 674.617188 590.867188 L 674.617188 609.355469 L 505.570312 609.355469 Z M 505.570312 590.867188 " clip-rule="nonzero"/></clipPath><clipPath id="4d69297c66"><path d="M 505.570312 609.355469 C 505.570312 604.503906 523.601562 599.761719 555.082031 596.332031 C 586.558594 592.902344 630.089844 590.9375 674.609375 590.9375 L 674.609375 609.355469 Z M 505.570312 609.355469 " clip-rule="nonzero"/></clipPath><clipPath id="3f105f32b2"><path d="M 0.570312 0.867188 L 169.617188 0.867188 L 169.617188 19.355469 L 0.570312 19.355469 Z M 0.570312 0.867188 " clip-rule="nonzero"/></clipPath><clipPath id="3e6332a557"><path d="M 0.570312 19.355469 C 0.570312 14.503906 18.601562 9.761719 50.082031 6.332031 C 81.558594 2.902344 125.089844 0.9375 169.609375 0.9375 L 169.609375 19.355469 Z M 0.570312 19.355469 " clip-rule="nonzero"/></clipPath><clipPath id="b582e60261"><rect x="0" width="170" y="0" height="20"/></clipPath><clipPath id="00aeccc1a8"><path d="M 459.472656 606.347656 L 710.613281 606.347656 L 710.613281 625.085938 L 459.472656 625.085938 Z M 459.472656 606.347656 " clip-rule="nonzero"/></clipPath><clipPath id="39f18895b4"><path d="M 468.84375 606.347656 L 701.199219 606.347656 C 706.375 606.347656 710.570312 610.542969 710.570312 615.71875 C 710.570312 620.890625 706.375 625.085938 701.199219 625.085938 L 468.84375 625.085938 C 463.667969 625.085938 459.472656 620.890625 459.472656 615.71875 C 459.472656 610.542969 463.667969 606.347656 468.84375 606.347656 Z M 468.84375 606.347656 " clip-rule="nonzero"/></clipPath><clipPath id="0b04a3d88f"><path d="M 0.472656 0.347656 L 251.574219 0.347656 L 251.574219 19.085938 L 0.472656 19.085938 Z M 0.472656 0.347656 " clip-rule="nonzero"/></clipPath><clipPath id="76f3e0854e"><path d="M 9.84375 0.347656 L 242.199219 0.347656 C 247.375 0.347656 251.570312 4.542969 251.570312 9.71875 C 251.570312 14.890625 247.375 19.085938 242.199219 19.085938 L 9.84375 19.085938 C 4.667969 19.085938 0.472656 14.890625 0.472656 9.71875 C 0.472656 4.542969 4.667969 0.347656 9.84375 0.347656 Z M 9.84375 0.347656 " clip-rule="nonzero"/></clipPath><clipPath id="a0445e06d0"><rect x="0" width="252" y="0" height="20"/></clipPath><clipPath id="6e6f15d7dc"><path d="M 208.378906 606.347656 L 459.519531 606.347656 L 459.519531 625.085938 L 208.378906 625.085938 Z M 208.378906 606.347656 " clip-rule="nonzero"/></clipPath><clipPath id="4d8637d5a1"><path d="M 217.746094 606.347656 L 450.105469 606.347656 C 455.277344 606.347656 459.472656 610.542969 459.472656 615.71875 C 459.472656 620.890625 455.277344 625.085938 450.105469 625.085938 L 217.746094 625.085938 C 212.574219 625.085938 208.378906 620.890625 208.378906 615.71875 C 208.378906 610.542969 212.574219 606.347656 217.746094 606.347656 Z M 217.746094 606.347656 " clip-rule="nonzero"/></clipPath><clipPath id="682d4b67cc"><path d="M 0.378906 0.347656 L 251.519531 0.347656 L 251.519531 19.085938 L 0.378906 19.085938 Z M 0.378906 0.347656 " clip-rule="nonzero"/></clipPath><clipPath id="6d8373fab5"><path d="M 9.746094 0.347656 L 242.105469 0.347656 C 247.277344 0.347656 251.472656 4.542969 251.472656 9.71875 C 251.472656 14.890625 247.277344 19.085938 242.105469 19.085938 L 9.746094 19.085938 C 4.574219 19.085938 0.378906 14.890625 0.378906 9.71875 C 0.378906 4.542969 4.574219 0.347656 9.746094 0.347656 Z M 9.746094 0.347656 " clip-rule="nonzero"/></clipPath><clipPath id="48235b4e61"><rect x="0" width="252" y="0" height="20"/></clipPath><clipPath id="d1aad9fdf0"><path d="M 257.382812 257.34375 L 459.097656 257.34375 L 459.097656 302.285156 L 257.382812 302.285156 Z M 257.382812 257.34375 " clip-rule="nonzero"/></clipPath><clipPath id="8f11e65001"><path d="M 257.46875 257.34375 C 310.570312 257.34375 362.492188 262.136719 400.042969 270.507812 C 437.589844 278.878906 459.097656 290.449219 459.097656 302.285156 L 257.46875 302.285156 Z M 257.46875 257.34375 " clip-rule="nonzero"/></clipPath><clipPath id="e317176a52"><path d="M 0.382812 0.34375 L 202.097656 0.34375 L 202.097656 45.285156 L 0.382812 45.285156 Z M 0.382812 0.34375 " clip-rule="nonzero"/></clipPath><clipPath id="970068deaf"><path d="M 0.46875 0.34375 C 53.570312 0.34375 105.492188 5.136719 143.042969 13.507812 C 180.589844 21.878906 202.097656 33.449219 202.097656 45.285156 L 0.46875 45.285156 Z M 0.46875 0.34375 " clip-rule="nonzero"/></clipPath><clipPath id="9b87bc06e2"><rect x="0" width="203" y="0" height="46"/></clipPath><clipPath id="2f6addcfcd"><path d="M 257.472656 290.835938 L 451.597656 290.835938 L 451.597656 338.882812 L 257.472656 338.882812 Z M 257.472656 290.835938 " clip-rule="nonzero"/></clipPath><clipPath id="6f462cd618"><path d="M 0.472656 0.835938 L 194.597656 0.835938 L 194.597656 48.882812 L 0.472656 48.882812 Z M 0.472656 0.835938 " clip-rule="nonzero"/></clipPath><clipPath id="d824daf932"><rect x="0" width="195" y="0" height="49"/></clipPath><clipPath id="aa7cde8412"><path d="M 451.589844 297.394531 L 459.097656 297.394531 L 459.097656 304.5625 L 451.589844 304.5625 Z M 451.589844 297.394531 " clip-rule="nonzero"/></clipPath><clipPath id="b9ab9b6867"><path d="M 451.59375 297.394531 C 453.570312 297.394531 455.503906 298.160156 456.898438 299.492188 C 458.296875 300.828125 459.097656 302.675781 459.097656 304.5625 L 451.59375 304.5625 Z M 451.59375 297.394531 " clip-rule="nonzero"/></clipPath><clipPath id="009b27dc99"><path d="M 0.589844 0.394531 L 8.097656 0.394531 L 8.097656 7.5625 L 0.589844 7.5625 Z M 0.589844 0.394531 " clip-rule="nonzero"/></clipPath><clipPath id="a865ca31df"><path d="M 0.59375 0.394531 C 2.570312 0.394531 4.503906 1.160156 5.898438 2.492188 C 7.296875 3.828125 8.097656 5.675781 8.097656 7.5625 L 0.59375 7.5625 Z M 0.59375 0.394531 " clip-rule="nonzero"/></clipPath><clipPath id="87848a5b69"><rect x="0" width="9" y="0" height="8"/></clipPath></defs><g clip-path="url(#50f1712c64)"><g clip-path="url(#93da6a42fa)"><g transform="matrix(1, 0, 0, 1, 84, 67)"><g clip-path="url(#0782eece7f)"><g clip-path="url(#54b25aeea0)"><g clip-path="url(#3cbc82c6a1)"><path fill="#4a90e2" d="M 0.703125 0.0546875 L 750.246094 0.0546875 L 750.246094 749.59375 L 0.703125 749.59375 Z M 0.703125 0.0546875 " fill-opacity="1" fill-rule="nonzero"/></g></g></g></g></g></g><g clip-path="url(#f04dd66e15)"><g clip-path="url(#8f3da9dc33)"><g transform="matrix(1, 0, 0, 1, 208, 287)"><g clip-path="url(#59345e3686)"><g clip-path="url(#d3e37e529b)"><g clip-path="url(#236c32664a)"><path fill="#fefefe" d="M 0.378906 0.0429688 L 19.117188 0.0429688 L 19.117188 338.070312 L 0.378906 338.070312 Z M 0.378906 0.0429688 " fill-opacity="1" fill-rule="nonzero"/></g></g></g></g></g></g><g clip-path="url(#acf81ce1f1)"><g clip-path="url(#83187f5641)"><g transform="matrix(1, 0, 0, 1, 238, 241)"><g clip-path="url(#144cfe4847)"><g clip-path="url(#116a6a43c2)"><g clip-path="url(#d169994c23)"><path fill="#fefefe" d="M 0.734375 0.320312 L 19.472656 0.320312 L 19.472656 350.71875 L 0.734375 350.71875 Z M 0.734375 0.320312 " fill-opacity="1" fill-rule="nonzero"/></g></g></g></g></g></g><g clip-path="url(#8944690d85)"><g clip-path="url(#3ec9a5a817)"><g transform="matrix(1, 0, 0, 1, 413, 624)"><g clip-path="url(#5f4fe120ac)"><g clip-path="url(#880f2811c9)"><g clip-path="url(#64cbe19608)"><path fill="#fefefe" d="M 0.394531 15.675781 L 0.394531 0.683594 L 50.285156 0.683594 L 50.285156 15.675781 Z M 0.394531 15.675781 " fill-opacity="1" fill-rule="nonzero"/></g></g></g></g></g></g><g clip-path="url(#4c47bd3520)"><g clip-path="url(#a230ae04ef)"><g transform="matrix(1, 0, 0, 1, 248, 241)"><g clip-path="url(#96d9888f0b)"><g clip-path="url(#a643ebc882)"><g clip-path="url(#53ebda10c2)"><path fill="#fefefe" d="M 211.472656 0.320312 L 211.472656 46.042969 L 0.1875 46.042969 L 0.1875 0.320312 Z M 211.472656 0.320312 " fill-opacity="1" fill-rule="nonzero"/></g></g></g></g></g></g><g clip-path="url(#af600e4243)"><g transform="matrix(1, 0, 0, 1, 248, 280)"><g clip-path="url(#9ac23823de)"><g clip-path="url(#bd933d55fa)"><path fill="#fefefe" d="M 0.101562 0.203125 L 221.734375 0.203125 L 221.734375 344.769531 L 0.101562 344.769531 Z M 0.101562 0.203125 " fill-opacity="1" fill-rule="nonzero"/></g></g></g></g><g clip-path="url(#259652a395)"><g transform="matrix(1, 0, 0, 1, 257, 302)"><g clip-path="url(#47025e79ac)"><g clip-path="url(#7965270822)"><path fill="#4a90e2" d="M 0.472656 0.285156 L 202.097656 0.285156 L 202.097656 304.300781 L 0.472656 304.300781 Z M 0.472656 0.285156 " fill-opacity="1" fill-rule="nonzero"/></g></g></g></g><g clip-path="url(#78a4f6a1d2)"><g clip-path="url(#67107af12a)"><g transform="matrix(1, 0, 0, 1, 256, 574)"><g clip-path="url(#08f6b7277c)"><g clip-path="url(#d204a0bf13)"><g clip-path="url(#d594e7f85b)"><path fill="#fefefe" d="M 203.097656 0.824219 L 203.097656 33.054688 L 0.777344 33.054688 L 0.777344 0.824219 Z M 203.097656 0.824219 " fill-opacity="1" fill-rule="nonzero"/></g></g></g></g></g></g><g clip-path="url(#6fcf2a8ac9)"><g clip-path="url(#821707cfac)"><g transform="matrix(1, 0, 0, 1, 243, 590)"><g clip-path="url(#e573c4648b)"><g clip-path="url(#5eb03764a2)"><g clip-path="url(#b9face01ba)"><path fill="#4a90e2" d="M 193.621094 0.9375 L 193.621094 19.355469 L 0.261719 19.355469 L 0.261719 0.9375 Z M 193.621094 0.9375 " fill-opacity="1" fill-rule="nonzero"/></g></g></g></g></g></g><g clip-path="url(#dd18b9b52c)"><g transform="matrix(1, 0, 0, 1, 459, 280)"><g clip-path="url(#36760a89ce)"><g clip-path="url(#bd913c6be7)"><path fill="#fefefe" d="M 0.0976562 0.203125 L 211.84375 0.203125 L 211.84375 345.117188 L 0.0976562 345.117188 Z M 0.0976562 0.203125 " fill-opacity="1" fill-rule="nonzero"/></g></g></g></g><g clip-path="url(#e913fd6c49)"><g clip-path="url(#871d86269d)"><g transform="matrix(1, 0, 0, 1, 691, 287)"><g clip-path="url(#6dad334d11)"><g clip-path="url(#bba04831f6)"><g clip-path="url(#c228ae8168)"><path fill="#fefefe" d="M 0.832031 0.0429688 L 19.570312 0.0429688 L 19.570312 338.070312 L 0.832031 338.070312 Z M 0.832031 0.0429688 " fill-opacity="1" fill-rule="nonzero"/></g></g></g></g></g></g><g clip-path="url(#9175b92280)"><g clip-path="url(#f64e742698)"><g transform="matrix(1, 0, 0, 1, 661, 241)"><g clip-path="url(#9ea7cb835c)"><g clip-path="url(#e59f67815a)"><g clip-path="url(#e2f31f516c)"><path fill="#fefefe" d="M 0.476562 0.320312 L 19.214844 0.320312 L 19.214844 350.71875 L 0.476562 350.71875 Z M 0.476562 0.320312 " fill-opacity="1" fill-rule="nonzero"/></g></g></g></g></g></g><g clip-path="url(#efb8aab20a)"><g clip-path="url(#551da7a237)"><g transform="matrix(1, 0, 0, 1, 458, 624)"><g clip-path="url(#b3e3c2faa0)"><g clip-path="url(#5530a67c52)"><g clip-path="url(#f3a9fe7287)"><path fill="#fefefe" d="M 47.566406 15.679688 L 0.136719 15.679688 L 0.136719 0.6875 L 47.566406 0.6875 Z M 47.566406 15.679688 " fill-opacity="1" fill-rule="nonzero"/></g></g></g></g></g></g><g clip-path="url(#6114dcab6b)"><g clip-path="url(#f54fd58e33)"><g transform="matrix(1, 0, 0, 1, 459, 241)"><g clip-path="url(#d7ac5d866a)"><g clip-path="url(#2e3619ba85)"><g clip-path="url(#73c54121a3)"><path fill="#fefefe" d="M 0.472656 0.320312 L 211.761719 0.320312 L 211.761719 46.042969 L 0.472656 46.042969 Z M 0.472656 0.320312 " fill-opacity="1" fill-rule="nonzero"/></g></g></g></g></g></g><g clip-path="url(#74d4876016)"><g clip-path="url(#4d69297c66)"><g transform="matrix(1, 0, 0, 1, 505, 590)"><g clip-path="url(#b582e60261)"><g clip-path="url(#3f105f32b2)"><g clip-path="url(#3e6332a557)"><path fill="#4a90e2" d="M 0.570312 0.9375 L 169.617188 0.9375 L 169.617188 19.351562 L 0.570312 19.351562 Z M 0.570312 0.9375 " fill-opacity="1" fill-rule="nonzero"/></g></g></g></g></g></g><g clip-path="url(#00aeccc1a8)"><g clip-path="url(#39f18895b4)"><g transform="matrix(1, 0, 0, 1, 459, 606)"><g clip-path="url(#a0445e06d0)"><g clip-path="url(#0b04a3d88f)"><g clip-path="url(#76f3e0854e)"><path fill="#fefefe" d="M 0.472656 0.347656 L 251.542969 0.347656 L 251.542969 19.085938 L 0.472656 19.085938 Z M 0.472656 0.347656 " fill-opacity="1" fill-rule="nonzero"/></g></g></g></g></g></g><g clip-path="url(#6e6f15d7dc)"><g clip-path="url(#4d8637d5a1)"><g transform="matrix(1, 0, 0, 1, 208, 606)"><g clip-path="url(#48235b4e61)"><g clip-path="url(#682d4b67cc)"><g clip-path="url(#6d8373fab5)"><path fill="#fefefe" d="M 0.378906 0.347656 L 251.445312 0.347656 L 251.445312 19.085938 L 0.378906 19.085938 Z M 0.378906 0.347656 " fill-opacity="1" fill-rule="nonzero"/></g></g></g></g></g></g><g clip-path="url(#d1aad9fdf0)"><g clip-path="url(#8f11e65001)"><g transform="matrix(1, 0, 0, 1, 257, 257)"><g clip-path="url(#9b87bc06e2)"><g clip-path="url(#e317176a52)"><g clip-path="url(#970068deaf)"><path fill="#4a90e2" d="M 202.097656 0.34375 L 202.097656 45.285156 L 0.382812 45.285156 L 0.382812 0.34375 Z M 202.097656 0.34375 " fill-opacity="1" fill-rule="nonzero"/></g></g></g></g></g></g><g clip-path="url(#2f6addcfcd)"><g transform="matrix(1, 0, 0, 1, 257, 290)"><g clip-path="url(#d824daf932)"><g clip-path="url(#6f462cd618)"><path fill="#4a90e2" d="M 0.472656 0.835938 L 194.53125 0.835938 L 194.53125 48.882812 L 0.472656 48.882812 Z M 0.472656 0.835938 " fill-opacity="1" fill-rule="nonzero"/></g></g></g></g><g clip-path="url(#aa7cde8412)"><g clip-path="url(#b9ab9b6867)"><g transform="matrix(1, 0, 0, 1, 451, 297)"><g clip-path="url(#87848a5b69)"><g clip-path="url(#009b27dc99)"><g clip-path="url(#a865ca31df)"><path fill="#4a90e2" d="M 8.097656 0.394531 L 8.097656 7.5625 L 0.589844 7.5625 L 0.589844 0.394531 Z M 8.097656 0.394531 " fill-opacity="1" fill-rule="nonzero"/></g></g></g></g></g></g><g fill="#ffffff" fill-opacity="1"><g transform="translate(309.811629, 511.936528)"><g><path d="M 68.953125 45.46875 L 7 -201.125 L 31.234375 -201.125 L 93.4375 45.46875 Z M 68.953125 45.46875 "/></g></g></g></svg>