<svg xmlns="http://www.w3.org/2000/svg" xmlns:xlink="http://www.w3.org/1999/xlink" width="1920" zoomAndPan="magnify" viewBox="0 0 1440 809.999993" height="1080" preserveAspectRatio="xMidYMid meet" version="1.0"><defs><clipPath id="93d63e4650"><path d="M 0.789062 0.492188 L 675.789062 0.492188 L 675.789062 675.492188 L 0.789062 675.492188 Z M 0.789062 0.492188 " clip-rule="nonzero"/></clipPath><clipPath id="926020b9b0"><path d="M 106.257812 0.492188 L 570.320312 0.492188 C 628.570312 0.492188 675.789062 47.710938 675.789062 105.960938 L 675.789062 570.023438 C 675.789062 628.273438 628.570312 675.492188 570.320312 675.492188 L 106.257812 675.492188 C 48.007812 675.492188 0.789062 628.273438 0.789062 570.023438 L 0.789062 105.960938 C 0.789062 47.710938 48.007812 0.492188 106.257812 0.492188 Z M 106.257812 0.492188 " clip-rule="nonzero"/></clipPath><clipPath id="04c0162c47"><path d="M 0.789062 0.492188 L 675.789062 0.492188 L 675.789062 675.492188 L 0.789062 675.492188 Z M 0.789062 0.492188 " clip-rule="nonzero"/></clipPath><clipPath id="50fc0cee26"><path d="M 106.257812 0.492188 L 570.320312 0.492188 C 628.570312 0.492188 675.789062 47.710938 675.789062 105.960938 L 675.789062 570.023438 C 675.789062 628.273438 628.570312 675.492188 570.320312 675.492188 L 106.257812 675.492188 C 48.007812 675.492188 0.789062 628.273438 0.789062 570.023438 L 0.789062 105.960938 C 0.789062 47.710938 48.007812 0.492188 106.257812 0.492188 Z M 106.257812 0.492188 " clip-rule="nonzero"/></clipPath><clipPath id="cf8810b5ec"><rect x="0" width="676" y="0" height="676"/></clipPath><clipPath id="0585d4d617"><path d="M 112.164062 486.15625 L 338.328125 486.15625 L 338.328125 503.03125 L 112.164062 503.03125 Z M 112.164062 486.15625 " clip-rule="nonzero"/></clipPath><clipPath id="8c192efcbb"><path d="M 120.601562 486.15625 L 329.851562 486.15625 C 334.511719 486.15625 338.289062 489.933594 338.289062 494.59375 C 338.289062 499.25 334.511719 503.03125 329.851562 503.03125 L 120.601562 503.03125 C 115.941406 503.03125 112.164062 499.25 112.164062 494.59375 C 112.164062 489.933594 115.941406 486.15625 120.601562 486.15625 Z M 120.601562 486.15625 " clip-rule="nonzero"/></clipPath><clipPath id="16d7e88052"><path d="M 0.164062 0.15625 L 226.328125 0.15625 L 226.328125 17.03125 L 0.164062 17.03125 Z M 0.164062 0.15625 " clip-rule="nonzero"/></clipPath><clipPath id="161dd84db7"><path d="M 8.601562 0.15625 L 217.851562 0.15625 C 222.511719 0.15625 226.289062 3.933594 226.289062 8.59375 C 226.289062 13.25 222.511719 17.03125 217.851562 17.03125 L 8.601562 17.03125 C 3.941406 17.03125 0.164062 13.25 0.164062 8.59375 C 0.164062 3.933594 3.941406 0.15625 8.601562 0.15625 Z M 8.601562 0.15625 " clip-rule="nonzero"/></clipPath><clipPath id="99fd2349ef"><rect x="0" width="227" y="0" height="18"/></clipPath><clipPath id="d1373d14fa"><path d="M 112.164062 198.605469 L 129.039062 198.605469 L 129.039062 503.078125 L 112.164062 503.078125 Z M 112.164062 198.605469 " clip-rule="nonzero"/></clipPath><clipPath id="99cf50c625"><path d="M 120.601562 198.605469 C 125.261719 198.605469 129.039062 202.382812 129.039062 207.042969 L 129.039062 494.59375 C 129.039062 499.25 125.261719 503.03125 120.601562 503.03125 C 115.941406 503.03125 112.164062 499.25 112.164062 494.59375 L 112.164062 207.042969 C 112.164062 202.382812 115.941406 198.605469 120.601562 198.605469 Z M 120.601562 198.605469 " clip-rule="nonzero"/></clipPath><clipPath id="ccbea62f42"><path d="M 0.164062 0.605469 L 17.039062 0.605469 L 17.039062 305.078125 L 0.164062 305.078125 Z M 0.164062 0.605469 " clip-rule="nonzero"/></clipPath><clipPath id="32e460bf36"><path d="M 8.601562 0.605469 C 13.261719 0.605469 17.039062 4.382812 17.039062 9.042969 L 17.039062 296.59375 C 17.039062 301.25 13.261719 305.03125 8.601562 305.03125 C 3.941406 305.03125 0.164062 301.25 0.164062 296.59375 L 0.164062 9.042969 C 0.164062 4.382812 3.941406 0.605469 8.601562 0.605469 Z M 8.601562 0.605469 " clip-rule="nonzero"/></clipPath><clipPath id="5821ddc3fc"><rect x="0" width="18" y="0" height="306"/></clipPath><clipPath id="122b01fea9"><path d="M 139.503906 157.429688 L 156.378906 157.429688 L 156.378906 472.980469 L 139.503906 472.980469 Z M 139.503906 157.429688 " clip-rule="nonzero"/></clipPath><clipPath id="0c49bf93b8"><path d="M 147.941406 157.429688 C 152.597656 157.429688 156.378906 161.207031 156.378906 165.867188 L 156.378906 464.539062 C 156.378906 469.199219 152.597656 472.976562 147.941406 472.976562 C 143.28125 472.976562 139.503906 469.199219 139.503906 464.539062 L 139.503906 165.867188 C 139.503906 161.207031 143.28125 157.429688 147.941406 157.429688 Z M 147.941406 157.429688 " clip-rule="nonzero"/></clipPath><clipPath id="6a0a78ae9b"><path d="M 0.503906 0.429688 L 17.378906 0.429688 L 17.378906 315.980469 L 0.503906 315.980469 Z M 0.503906 0.429688 " clip-rule="nonzero"/></clipPath><clipPath id="50e4114f94"><path d="M 8.941406 0.429688 C 13.597656 0.429688 17.378906 4.207031 17.378906 8.867188 L 17.378906 307.539062 C 17.378906 312.199219 13.597656 315.976562 8.941406 315.976562 C 4.28125 315.976562 0.503906 312.199219 0.503906 307.539062 L 0.503906 8.867188 C 0.503906 4.207031 4.28125 0.429688 8.941406 0.429688 Z M 8.941406 0.429688 " clip-rule="nonzero"/></clipPath><clipPath id="8f77e2aac3"><rect x="0" width="18" y="0" height="316"/></clipPath><clipPath id="977ae8a6f6"><path d="M 296.789062 502.671875 L 338.660156 502.671875 L 338.660156 516.171875 L 296.789062 516.171875 Z M 296.789062 502.671875 " clip-rule="nonzero"/></clipPath><clipPath id="25346efca2"><path d="M 338.640625 516.171875 C 327.617188 516.171875 316.839844 514.730469 309.046875 512.214844 C 301.253906 509.703125 296.789062 506.226562 296.789062 502.671875 L 338.640625 502.671875 Z M 338.640625 516.171875 " clip-rule="nonzero"/></clipPath><clipPath id="8faf3f0553"><path d="M 0.789062 0.671875 L 42.660156 0.671875 L 42.660156 14.171875 L 0.789062 14.171875 Z M 0.789062 0.671875 " clip-rule="nonzero"/></clipPath><clipPath id="d3884cebef"><path d="M 42.640625 14.171875 C 31.617188 14.171875 20.839844 12.730469 13.046875 10.214844 C 5.253906 7.703125 0.789062 4.226562 0.789062 0.671875 L 42.640625 0.671875 Z M 42.640625 14.171875 " clip-rule="nonzero"/></clipPath><clipPath id="a2dc229303"><rect x="0" width="43" y="0" height="15"/></clipPath><clipPath id="597e099a91"><path d="M 147.855469 157.429688 L 338.289062 157.429688 L 338.289062 198.605469 L 147.855469 198.605469 Z M 147.855469 157.429688 " clip-rule="nonzero"/></clipPath><clipPath id="8a4b70a284"><path d="M 147.941406 157.429688 C 198.070312 157.429688 247.089844 161.820312 282.539062 169.488281 C 317.984375 177.15625 338.289062 187.761719 338.289062 198.605469 L 147.941406 198.605469 Z M 147.941406 157.429688 " clip-rule="nonzero"/></clipPath><clipPath id="945e91779a"><path d="M 1 0.429688 L 191.289062 0.429688 L 191.289062 41.605469 L 1 41.605469 Z M 1 0.429688 " clip-rule="nonzero"/></clipPath><clipPath id="eb3a8d53ad"><path d="M 0.941406 0.429688 C 51.070312 0.429688 100.089844 4.820312 135.539062 12.488281 C 170.984375 20.15625 191.289062 30.761719 191.289062 41.605469 L 0.941406 41.605469 Z M 0.941406 0.429688 " clip-rule="nonzero"/></clipPath><clipPath id="191472b09d"><rect x="0" width="192" y="0" height="42"/></clipPath><clipPath id="250b8672dc"><path d="M 147.941406 192.445312 L 347.527344 192.445312 L 347.527344 503.03125 L 147.941406 503.03125 Z M 147.941406 192.445312 " clip-rule="nonzero"/></clipPath><clipPath id="880160d6c3"><path d="M 0.941406 0.445312 L 200.527344 0.445312 L 200.527344 311 L 0.941406 311 Z M 0.941406 0.445312 " clip-rule="nonzero"/></clipPath><clipPath id="61405c8a27"><rect x="0" width="201" y="0" height="312"/></clipPath><clipPath id="ccbe22a496"><path d="M 156.378906 213.03125 L 330.589844 213.03125 L 330.589844 486.15625 L 156.378906 486.15625 Z M 156.378906 213.03125 " clip-rule="nonzero"/></clipPath><clipPath id="ad0873f56b"><path d="M 0.378906 0.03125 L 174.589844 0.03125 L 174.589844 273 L 0.378906 273 Z M 0.378906 0.03125 " clip-rule="nonzero"/></clipPath><clipPath id="c4d9ea32f1"><rect x="0" width="175" y="0" height="274"/></clipPath><clipPath id="c9ad44303a"><path d="M 155.722656 457.765625 L 331.234375 457.765625 L 331.234375 486.789062 L 155.722656 486.789062 Z M 155.722656 457.765625 " clip-rule="nonzero"/></clipPath><clipPath id="fdba794c28"><path d="M 155.734375 457.765625 C 201.953125 457.765625 247.148438 460.859375 279.832031 466.265625 C 312.511719 471.671875 331.234375 479.144531 331.234375 486.789062 L 155.734375 486.789062 Z M 155.734375 457.765625 " clip-rule="nonzero"/></clipPath><clipPath id="b57c7b675e"><path d="M 0.722656 0.765625 L 176.234375 0.765625 L 176.234375 29.789062 L 0.722656 29.789062 Z M 0.722656 0.765625 " clip-rule="nonzero"/></clipPath><clipPath id="658fc6c973"><path d="M 0.734375 0.765625 C 46.953125 0.765625 92.148438 3.859375 124.832031 9.265625 C 157.511719 14.671875 176.234375 22.144531 176.234375 29.789062 L 0.734375 29.789062 Z M 0.734375 0.765625 " clip-rule="nonzero"/></clipPath><clipPath id="e44297e1e1"><rect x="0" width="177" y="0" height="30"/></clipPath><clipPath id="b053b415b6"><path d="M 147.613281 472.855469 L 290.402344 472.855469 L 290.402344 486.1875 L 147.613281 486.1875 Z M 147.613281 472.855469 " clip-rule="nonzero"/></clipPath><clipPath id="5ffa23bfac"><path d="M 147.640625 472.855469 C 185.238281 472.855469 222.003906 474.277344 248.589844 476.761719 C 275.175781 479.246094 290.402344 482.675781 290.402344 486.1875 L 147.640625 486.1875 Z M 147.640625 472.855469 " clip-rule="nonzero"/></clipPath><clipPath id="9b096e6f0c"><path d="M 0.613281 0.855469 L 143.402344 0.855469 L 143.402344 14.1875 L 0.613281 14.1875 Z M 0.613281 0.855469 " clip-rule="nonzero"/></clipPath><clipPath id="674017372e"><path d="M 0.640625 0.855469 C 38.238281 0.855469 75.003906 2.277344 101.589844 4.761719 C 128.175781 7.246094 143.402344 10.675781 143.402344 14.1875 L 0.640625 14.1875 Z M 0.640625 0.855469 " clip-rule="nonzero"/></clipPath><clipPath id="8c5ae46426"><rect x="0" width="144" y="0" height="15"/></clipPath><clipPath id="afc769ac33"><path d="M 330.589844 192.445312 L 528.640625 192.445312 L 528.640625 503.03125 L 330.589844 503.03125 Z M 330.589844 192.445312 " clip-rule="nonzero"/></clipPath><clipPath id="de572d94fa"><path d="M 0.589844 0.445312 L 198.640625 0.445312 L 198.640625 311 L 0.589844 311 Z M 0.589844 0.445312 " clip-rule="nonzero"/></clipPath><clipPath id="44d6c9a6cb"><rect x="0" width="199" y="0" height="312"/></clipPath><clipPath id="25b654c02e"><path d="M 338.289062 486.15625 L 564.453125 486.15625 L 564.453125 503.03125 L 338.289062 503.03125 Z M 338.289062 486.15625 " clip-rule="nonzero"/></clipPath><clipPath id="acf96c9c4e"><path d="M 346.726562 486.15625 L 555.976562 486.15625 C 560.636719 486.15625 564.414062 489.933594 564.414062 494.59375 C 564.414062 499.25 560.636719 503.03125 555.976562 503.03125 L 346.726562 503.03125 C 342.066406 503.03125 338.289062 499.25 338.289062 494.59375 C 338.289062 489.933594 342.066406 486.15625 346.726562 486.15625 Z M 346.726562 486.15625 " clip-rule="nonzero"/></clipPath><clipPath id="63070b3e58"><path d="M 0.289062 0.15625 L 226.453125 0.15625 L 226.453125 17.03125 L 0.289062 17.03125 Z M 0.289062 0.15625 " clip-rule="nonzero"/></clipPath><clipPath id="129b5e1315"><path d="M 8.726562 0.15625 L 217.976562 0.15625 C 222.636719 0.15625 226.414062 3.933594 226.414062 8.59375 C 226.414062 13.25 222.636719 17.03125 217.976562 17.03125 L 8.726562 17.03125 C 4.066406 17.03125 0.289062 13.25 0.289062 8.59375 C 0.289062 3.933594 4.066406 0.15625 8.726562 0.15625 Z M 8.726562 0.15625 " clip-rule="nonzero"/></clipPath><clipPath id="7d5f05a16b"><rect x="0" width="227" y="0" height="18"/></clipPath><clipPath id="8fc9eaf3bc"><path d="M 547.539062 198.605469 L 564.414062 198.605469 L 564.414062 503.078125 L 547.539062 503.078125 Z M 547.539062 198.605469 " clip-rule="nonzero"/></clipPath><clipPath id="f45cea5f47"><path d="M 555.976562 198.605469 C 560.636719 198.605469 564.414062 202.382812 564.414062 207.042969 L 564.414062 494.59375 C 564.414062 499.25 560.636719 503.03125 555.976562 503.03125 C 551.316406 503.03125 547.539062 499.25 547.539062 494.59375 L 547.539062 207.042969 C 547.539062 202.382812 551.316406 198.605469 555.976562 198.605469 Z M 555.976562 198.605469 " clip-rule="nonzero"/></clipPath><clipPath id="b12f5594d9"><path d="M 0.539062 0.605469 L 17.414062 0.605469 L 17.414062 305.078125 L 0.539062 305.078125 Z M 0.539062 0.605469 " clip-rule="nonzero"/></clipPath><clipPath id="c349c5f890"><path d="M 8.976562 0.605469 C 13.636719 0.605469 17.414062 4.382812 17.414062 9.042969 L 17.414062 296.59375 C 17.414062 301.25 13.636719 305.03125 8.976562 305.03125 C 4.316406 305.03125 0.539062 301.25 0.539062 296.59375 L 0.539062 9.042969 C 0.539062 4.382812 4.316406 0.605469 8.976562 0.605469 Z M 8.976562 0.605469 " clip-rule="nonzero"/></clipPath><clipPath id="5a9457b5b5"><rect x="0" width="18" y="0" height="306"/></clipPath><clipPath id="213573d11a"><path d="M 520.203125 157.429688 L 537.078125 157.429688 L 537.078125 472.980469 L 520.203125 472.980469 Z M 520.203125 157.429688 " clip-rule="nonzero"/></clipPath><clipPath id="19e29b24f8"><path d="M 528.640625 157.429688 C 533.300781 157.429688 537.078125 161.207031 537.078125 165.867188 L 537.078125 464.539062 C 537.078125 469.199219 533.300781 472.976562 528.640625 472.976562 C 523.980469 472.976562 520.203125 469.199219 520.203125 464.539062 L 520.203125 165.867188 C 520.203125 161.207031 523.980469 157.429688 528.640625 157.429688 Z M 528.640625 157.429688 " clip-rule="nonzero"/></clipPath><clipPath id="bff5a0cd78"><path d="M 0.203125 0.429688 L 17.078125 0.429688 L 17.078125 315.980469 L 0.203125 315.980469 Z M 0.203125 0.429688 " clip-rule="nonzero"/></clipPath><clipPath id="a44bddbb9e"><path d="M 8.640625 0.429688 C 13.300781 0.429688 17.078125 4.207031 17.078125 8.867188 L 17.078125 307.539062 C 17.078125 312.199219 13.300781 315.976562 8.640625 315.976562 C 3.980469 315.976562 0.203125 312.199219 0.203125 307.539062 L 0.203125 8.867188 C 0.203125 4.207031 3.980469 0.429688 8.640625 0.429688 Z M 8.640625 0.429688 " clip-rule="nonzero"/></clipPath><clipPath id="295095eea5"><rect x="0" width="18" y="0" height="316"/></clipPath><clipPath id="44e5c9b7a6"><path d="M 337.929688 502.671875 L 379.800781 502.671875 L 379.800781 516.222656 L 337.929688 516.222656 Z M 337.929688 502.671875 " clip-rule="nonzero"/></clipPath><clipPath id="ef43d9d8d2"><path d="M 379.800781 502.671875 C 379.800781 506.226562 375.339844 509.703125 367.542969 512.214844 C 359.75 514.730469 348.972656 516.171875 337.953125 516.171875 L 337.953125 502.671875 Z M 379.800781 502.671875 " clip-rule="nonzero"/></clipPath><clipPath id="8dcc9d91f9"><path d="M 0.929688 0.671875 L 42.800781 0.671875 L 42.800781 14.199219 L 0.929688 14.199219 Z M 0.929688 0.671875 " clip-rule="nonzero"/></clipPath><clipPath id="1397e43bf4"><path d="M 42.800781 0.671875 C 42.800781 4.226562 38.339844 7.703125 30.542969 10.214844 C 22.75 12.730469 11.972656 14.171875 0.953125 14.171875 L 0.953125 0.671875 Z M 42.800781 0.671875 " clip-rule="nonzero"/></clipPath><clipPath id="fc59ac5eca"><rect x="0" width="43" y="0" height="15"/></clipPath><clipPath id="7b6f1f0392"><path d="M 338.289062 157.269531 L 528.722656 157.269531 L 528.722656 198.605469 L 338.289062 198.605469 Z M 338.289062 157.269531 " clip-rule="nonzero"/></clipPath><clipPath id="abd352f767"><path d="M 338.289062 198.605469 C 338.289062 187.761719 358.59375 177.15625 394.042969 169.488281 C 429.488281 161.820312 478.507812 157.429688 528.640625 157.429688 L 528.640625 198.605469 Z M 338.289062 198.605469 " clip-rule="nonzero"/></clipPath><clipPath id="415ba90f99"><path d="M 0.289062 0.398438 L 190.722656 0.398438 L 190.722656 41.605469 L 0.289062 41.605469 Z M 0.289062 0.398438 " clip-rule="nonzero"/></clipPath><clipPath id="c99e541ffd"><path d="M 0.289062 41.605469 C 0.289062 30.761719 20.59375 20.15625 56.042969 12.488281 C 91.488281 4.820312 140.507812 0.429688 190.640625 0.429688 L 190.640625 41.605469 Z M 0.289062 41.605469 " clip-rule="nonzero"/></clipPath><clipPath id="9f5a842ab3"><rect x="0" width="191" y="0" height="42"/></clipPath><clipPath id="ec2f881fc9"><path d="M 386.820312 472.804688 L 529.609375 472.804688 L 529.609375 486.222656 L 386.820312 486.222656 Z M 386.820312 472.804688 " clip-rule="nonzero"/></clipPath><clipPath id="652135ebf9"><path d="M 386.820312 486.222656 C 386.820312 482.703125 402.050781 479.261719 428.636719 476.769531 C 455.222656 474.28125 491.988281 472.855469 529.585938 472.855469 L 529.585938 486.222656 Z M 386.820312 486.222656 " clip-rule="nonzero"/></clipPath><clipPath id="8eb0f3646b"><path d="M 0.820312 0.804688 L 143.609375 0.804688 L 143.609375 14.222656 L 0.820312 14.222656 Z M 0.820312 0.804688 " clip-rule="nonzero"/></clipPath><clipPath id="4d029a156b"><path d="M 0.820312 14.222656 C 0.820312 10.703125 16.050781 7.261719 42.636719 4.769531 C 69.222656 2.28125 105.988281 0.855469 143.585938 0.855469 L 143.585938 14.222656 Z M 0.820312 14.222656 " clip-rule="nonzero"/></clipPath><clipPath id="ddf1869c2b"><rect x="0" width="144" y="0" height="15"/></clipPath><clipPath id="d8a63de37f"><path d="M 156.230469 171.851562 L 330.75 171.851562 L 330.75 214.039062 L 156.230469 214.039062 Z M 156.230469 171.851562 " clip-rule="nonzero"/></clipPath><clipPath id="b5b0d78170"><path d="M 156.371094 171.851562 C 202.253906 171.851562 247.117188 176.351562 279.558594 184.207031 C 312.003906 192.066406 330.585938 202.929688 330.585938 214.039062 L 156.371094 214.039062 Z M 156.371094 171.851562 " clip-rule="nonzero"/></clipPath><clipPath id="74760476ec"><path d="M 0.359375 0.851562 L 174.601562 0.851562 L 174.601562 43.039062 L 0.359375 43.039062 Z M 0.359375 0.851562 " clip-rule="nonzero"/></clipPath><clipPath id="4e998af188"><path d="M 0.371094 0.851562 C 46.253906 0.851562 91.117188 5.351562 123.558594 13.207031 C 156.003906 21.066406 174.585938 31.929688 174.585938 43.039062 L 0.371094 43.039062 Z M 0.371094 0.851562 " clip-rule="nonzero"/></clipPath><clipPath id="4ef0045371"><rect x="0" width="175" y="0" height="44"/></clipPath><clipPath id="6f5732d28a"><path d="M 195.003906 213.03125 L 291.964844 213.03125 L 291.964844 433.257812 L 195.003906 433.257812 Z M 195.003906 213.03125 " clip-rule="nonzero"/></clipPath><clipPath id="0c56b1d6bf"><path d="M 0.00390625 0.03125 L 96.964844 0.03125 L 96.964844 220.257812 L 0.00390625 220.257812 Z M 0.00390625 0.03125 " clip-rule="nonzero"/></clipPath><clipPath id="e7a06d9c08"><rect x="0" width="97" y="0" height="221"/></clipPath><clipPath id="87c87355f1"><path d="M 194.515625 213.03125 L 258.640625 213.03125 L 258.640625 438.722656 L 194.515625 438.722656 Z M 194.515625 213.03125 " clip-rule="nonzero"/></clipPath><clipPath id="85f5f17693"><path d="M 258.640625 438.480469 L 194.515625 438.480469 L 194.515625 213.03125 Z M 258.640625 438.480469 " clip-rule="nonzero"/></clipPath><clipPath id="daf62975fe"><path d="M 0.515625 0.03125 L 64.640625 0.03125 L 64.640625 225.679688 L 0.515625 225.679688 Z M 0.515625 0.03125 " clip-rule="nonzero"/></clipPath><clipPath id="c73bd5c84a"><path d="M 64.640625 225.480469 L 0.515625 225.480469 L 0.515625 0.03125 Z M 64.640625 225.480469 " clip-rule="nonzero"/></clipPath><clipPath id="57bb5c7972"><rect x="0" width="65" y="0" height="226"/></clipPath><clipPath id="b0176778fe"><path d="M 228.265625 207.566406 L 292.390625 207.566406 L 292.390625 433.257812 L 228.265625 433.257812 Z M 228.265625 207.566406 " clip-rule="nonzero"/></clipPath><clipPath id="c7b677b172"><path d="M 228.265625 207.808594 L 292.390625 207.808594 L 292.390625 433.257812 Z M 228.265625 207.808594 " clip-rule="nonzero"/></clipPath><clipPath id="9a37be60b4"><path d="M 0.265625 0.800781 L 64.390625 0.800781 L 64.390625 226.257812 L 0.265625 226.257812 Z M 0.265625 0.800781 " clip-rule="nonzero"/></clipPath><clipPath id="f4e30a7ad2"><path d="M 0.265625 0.808594 L 64.390625 0.808594 L 64.390625 226.257812 Z M 0.265625 0.808594 " clip-rule="nonzero"/></clipPath><clipPath id="43e79ccd0a"><rect x="0" width="65" y="0" height="227"/></clipPath><clipPath id="3446ad8e2f"><rect x="0" width="676" y="0" height="676"/></clipPath></defs><g transform="matrix(1, 0, 0, 1, 381, 67)"><g clip-path="url(#3446ad8e2f)"><g clip-path="url(#93d63e4650)"><g clip-path="url(#926020b9b0)"><g transform="matrix(1, 0, 0, 1, 0, 0.000000000000042633)"><g clip-path="url(#cf8810b5ec)"><g clip-path="url(#04c0162c47)"><g clip-path="url(#50fc0cee26)"><path fill="#4a90e2" d="M 0.789062 0.492188 L 675.789062 0.492188 L 675.789062 675.492188 L 0.789062 675.492188 Z M 0.789062 0.492188 " fill-opacity="1" fill-rule="nonzero"/></g></g></g></g></g></g><g clip-path="url(#0585d4d617)"><g clip-path="url(#8c192efcbb)"><g transform="matrix(1, 0, 0, 1, 112, 486)"><g clip-path="url(#99fd2349ef)"><g clip-path="url(#16d7e88052)"><g clip-path="url(#161dd84db7)"><path fill="#fefefe" d="M 0.164062 0.15625 L 226.261719 0.15625 L 226.261719 17.03125 L 0.164062 17.03125 Z M 0.164062 0.15625 " fill-opacity="1" fill-rule="nonzero"/></g></g></g></g></g></g><g clip-path="url(#d1373d14fa)"><g clip-path="url(#99cf50c625)"><g transform="matrix(1, 0, 0, 1, 112, 198)"><g clip-path="url(#5821ddc3fc)"><g clip-path="url(#ccbea62f42)"><g clip-path="url(#32e460bf36)"><path fill="#fefefe" d="M 0.164062 0.605469 L 17.039062 0.605469 L 17.039062 305.011719 L 0.164062 305.011719 Z M 0.164062 0.605469 " fill-opacity="1" fill-rule="nonzero"/></g></g></g></g></g></g><g clip-path="url(#122b01fea9)"><g clip-path="url(#0c49bf93b8)"><g transform="matrix(1, 0, 0, 1, 139, 157)"><g clip-path="url(#8f77e2aac3)"><g clip-path="url(#6a0a78ae9b)"><g clip-path="url(#50e4114f94)"><path fill="#fefefe" d="M 0.503906 0.429688 L 17.378906 0.429688 L 17.378906 315.980469 L 0.503906 315.980469 Z M 0.503906 0.429688 " fill-opacity="1" fill-rule="nonzero"/></g></g></g></g></g></g><g clip-path="url(#977ae8a6f6)"><g clip-path="url(#25346efca2)"><g transform="matrix(1, 0, 0, 1, 296, 502)"><g clip-path="url(#a2dc229303)"><g clip-path="url(#8faf3f0553)"><g clip-path="url(#d3884cebef)"><path fill="#fefefe" d="M 0.789062 14.171875 L 0.789062 0.671875 L 42.660156 0.671875 L 42.660156 14.171875 Z M 0.789062 14.171875 " fill-opacity="1" fill-rule="nonzero"/></g></g></g></g></g></g><g clip-path="url(#597e099a91)"><g clip-path="url(#8a4b70a284)"><g transform="matrix(1, 0, 0, 1, 147, 157)"><g clip-path="url(#191472b09d)"><g clip-path="url(#945e91779a)"><g clip-path="url(#eb3a8d53ad)"><path fill="#fefefe" d="M 191.289062 0.429688 L 191.289062 41.605469 L 1.015625 41.605469 L 1.015625 0.429688 Z M 191.289062 0.429688 " fill-opacity="1" fill-rule="nonzero"/></g></g></g></g></g></g><g clip-path="url(#250b8672dc)"><g transform="matrix(1, 0, 0, 1, 147, 192)"><g clip-path="url(#61405c8a27)"><g clip-path="url(#880160d6c3)"><path fill="#fefefe" d="M 0.941406 0.445312 L 200.527344 0.445312 L 200.527344 310.742188 L 0.941406 310.742188 Z M 0.941406 0.445312 " fill-opacity="1" fill-rule="nonzero"/></g></g></g></g><g clip-path="url(#ccbe22a496)"><g transform="matrix(1, 0, 0, 1, 156, 213)"><g clip-path="url(#c4d9ea32f1)"><g clip-path="url(#ad0873f56b)"><path fill="#4a90e2" d="M 0.378906 0.03125 L 174.589844 0.03125 L 174.589844 272.921875 L 0.378906 272.921875 Z M 0.378906 0.03125 " fill-opacity="1" fill-rule="nonzero"/></g></g></g></g><g clip-path="url(#c9ad44303a)"><g clip-path="url(#fdba794c28)"><g transform="matrix(1, 0, 0, 1, 155, 457)"><g clip-path="url(#e44297e1e1)"><g clip-path="url(#b57c7b675e)"><g clip-path="url(#658fc6c973)"><path fill="#fefefe" d="M 176.234375 0.765625 L 176.234375 29.789062 L 0.722656 29.789062 L 0.722656 0.765625 Z M 176.234375 0.765625 " fill-opacity="1" fill-rule="nonzero"/></g></g></g></g></g></g><g clip-path="url(#b053b415b6)"><g clip-path="url(#5ffa23bfac)"><g transform="matrix(1, 0, 0, 1, 147, 472)"><g clip-path="url(#8c5ae46426)"><g clip-path="url(#9b096e6f0c)"><g clip-path="url(#674017372e)"><path fill="#4a90e2" d="M 143.402344 0.855469 L 143.402344 14.1875 L 0.664062 14.1875 L 0.664062 0.855469 Z M 143.402344 0.855469 " fill-opacity="1" fill-rule="nonzero"/></g></g></g></g></g></g><g clip-path="url(#afc769ac33)"><g transform="matrix(1, 0, 0, 1, 330, 192)"><g clip-path="url(#44d6c9a6cb)"><g clip-path="url(#de572d94fa)"><path fill="#fefefe" d="M 0.589844 0.445312 L 198.640625 0.445312 L 198.640625 310.671875 L 0.589844 310.671875 Z M 0.589844 0.445312 " fill-opacity="1" fill-rule="nonzero"/></g></g></g></g><g clip-path="url(#25b654c02e)"><g clip-path="url(#acf96c9c4e)"><g transform="matrix(1, 0, 0, 1, 338, 486)"><g clip-path="url(#7d5f05a16b)"><g clip-path="url(#63070b3e58)"><g clip-path="url(#129b5e1315)"><path fill="#fefefe" d="M 0.289062 0.15625 L 226.386719 0.15625 L 226.386719 17.03125 L 0.289062 17.03125 Z M 0.289062 0.15625 " fill-opacity="1" fill-rule="nonzero"/></g></g></g></g></g></g><g clip-path="url(#8fc9eaf3bc)"><g clip-path="url(#f45cea5f47)"><g transform="matrix(1, 0, 0, 1, 547, 198)"><g clip-path="url(#5a9457b5b5)"><g clip-path="url(#b12f5594d9)"><g clip-path="url(#c349c5f890)"><path fill="#fefefe" d="M 0.539062 0.605469 L 17.414062 0.605469 L 17.414062 305.011719 L 0.539062 305.011719 Z M 0.539062 0.605469 " fill-opacity="1" fill-rule="nonzero"/></g></g></g></g></g></g><g clip-path="url(#213573d11a)"><g clip-path="url(#19e29b24f8)"><g transform="matrix(1, 0, 0, 1, 520, 157)"><g clip-path="url(#295095eea5)"><g clip-path="url(#bff5a0cd78)"><g clip-path="url(#a44bddbb9e)"><path fill="#fefefe" d="M 0.203125 0.429688 L 17.078125 0.429688 L 17.078125 315.980469 L 0.203125 315.980469 Z M 0.203125 0.429688 " fill-opacity="1" fill-rule="nonzero"/></g></g></g></g></g></g><g clip-path="url(#44e5c9b7a6)"><g clip-path="url(#ef43d9d8d2)"><g transform="matrix(1, 0, 0, 1, 337, 502)"><g clip-path="url(#fc59ac5eca)"><g clip-path="url(#8dcc9d91f9)"><g clip-path="url(#1397e43bf4)"><path fill="#fefefe" d="M 42.800781 14.171875 L 0.929688 14.171875 L 0.929688 0.671875 L 42.800781 0.671875 Z M 42.800781 14.171875 " fill-opacity="1" fill-rule="nonzero"/></g></g></g></g></g></g><g clip-path="url(#7b6f1f0392)"><g clip-path="url(#abd352f767)"><g transform="matrix(1, 0, 0, 1, 338, 157)"><g clip-path="url(#9f5a842ab3)"><g clip-path="url(#415ba90f99)"><g clip-path="url(#c99e541ffd)"><path fill="#fefefe" d="M 0.289062 0.429688 L 190.5625 0.429688 L 190.5625 41.605469 L 0.289062 41.605469 Z M 0.289062 0.429688 " fill-opacity="1" fill-rule="nonzero"/></g></g></g></g></g></g><g clip-path="url(#ec2f881fc9)"><g clip-path="url(#652135ebf9)"><g transform="matrix(1, 0, 0, 1, 386, 472)"><g clip-path="url(#ddf1869c2b)"><g clip-path="url(#8eb0f3646b)"><g clip-path="url(#4d029a156b)"><path fill="#4a90e2" d="M 0.820312 0.855469 L 143.609375 0.855469 L 143.609375 14.222656 L 0.820312 14.222656 Z M 0.820312 0.855469 " fill-opacity="1" fill-rule="nonzero"/></g></g></g></g></g></g><g clip-path="url(#d8a63de37f)"><g clip-path="url(#b5b0d78170)"><g transform="matrix(1, 0, 0, 1, 156, 171)"><g clip-path="url(#4ef0045371)"><g clip-path="url(#74760476ec)"><g clip-path="url(#4e998af188)"><path fill="#4a90e2" d="M 174.585938 0.851562 L 174.585938 43.039062 L 0.398438 43.039062 L 0.398438 0.851562 Z M 174.585938 0.851562 " fill-opacity="1" fill-rule="nonzero"/></g></g></g></g></g></g><g clip-path="url(#6f5732d28a)"><g transform="matrix(1, 0, 0, 1, 195, 213)"><g clip-path="url(#e7a06d9c08)"><g clip-path="url(#0c56b1d6bf)"><path fill="#fefefe" d="M 0.00390625 0.03125 L 96.964844 0.03125 L 96.964844 220.09375 L 0.00390625 220.09375 Z M 0.00390625 0.03125 " fill-opacity="1" fill-rule="nonzero"/></g></g></g></g><g clip-path="url(#87c87355f1)"><g clip-path="url(#85f5f17693)"><g transform="matrix(1, 0, 0, 1, 194, 213)"><g clip-path="url(#57bb5c7972)"><g clip-path="url(#daf62975fe)"><g clip-path="url(#c73bd5c84a)"><path fill="#4a90e2" d="M 0.515625 0.03125 L 64.640625 0.03125 L 64.640625 225.472656 L 0.515625 225.472656 Z M 0.515625 0.03125 " fill-opacity="1" fill-rule="nonzero"/></g></g></g></g></g></g><g clip-path="url(#b0176778fe)"><g clip-path="url(#c7b677b172)"><g transform="matrix(1, 0, 0, 1, 228, 207)"><g clip-path="url(#43e79ccd0a)"><g clip-path="url(#9a37be60b4)"><g clip-path="url(#f4e30a7ad2)"><path fill="#4a90e2" d="M 64.390625 226.257812 L 0.265625 226.257812 L 0.265625 0.816406 L 64.390625 0.816406 Z M 64.390625 226.257812 " fill-opacity="1" fill-rule="nonzero"/></g></g></g></g></g></g></g></g></svg>