<svg xmlns="http://www.w3.org/2000/svg" xmlns:xlink="http://www.w3.org/1999/xlink" zoomAndPan="magnify" viewBox="0 0 750 750" preserveAspectRatio="xMidYMid meet" version="1.0"><defs><g/><clipPath id="1813bef356"><path d="M 117.1875 0 L 632.8125 0 C 663.890625 0 693.699219 12.347656 715.675781 34.324219 C 737.652344 56.300781 750 86.109375 750 117.1875 L 750 632.8125 C 750 697.535156 697.535156 750 632.8125 750 L 117.1875 750 C 86.109375 750 56.300781 737.652344 34.324219 715.675781 C 12.347656 693.699219 0 663.890625 0 632.8125 L 0 117.1875 C 0 52.464844 52.464844 0 117.1875 0 Z M 117.1875 0 " clip-rule="nonzero"/></clipPath><clipPath id="e30cfa3c4b"><path d="M 0 0 L 750 0 L 750 750 L 0 750 Z M 0 0 " clip-rule="nonzero"/></clipPath><clipPath id="154c9e2b6c"><path d="M 117.1875 0 L 632.8125 0 C 663.890625 0 693.699219 12.347656 715.675781 34.324219 C 737.652344 56.300781 750 86.109375 750 117.1875 L 750 632.8125 C 750 697.535156 697.535156 750 632.8125 750 L 117.1875 750 C 86.109375 750 56.300781 737.652344 34.324219 715.675781 C 12.347656 693.699219 0 663.890625 0 632.8125 L 0 117.1875 C 0 52.464844 52.464844 0 117.1875 0 Z M 117.1875 0 " clip-rule="nonzero"/></clipPath><clipPath id="853cc167b8"><rect x="0" width="750" y="0" height="750"/></clipPath><clipPath id="93335f4cee"><path d="M 0.5 7.097656 L 29.148438 7.097656 L 29.148438 542.832031 L 0.5 542.832031 Z M 0.5 7.097656 " clip-rule="nonzero"/></clipPath><clipPath id="bb63bdc021"><path d="M 14.824219 7.097656 C 22.738281 7.097656 29.148438 13.507812 29.148438 21.421875 L 29.148438 528.503906 C 29.148438 536.417969 22.738281 542.832031 14.824219 542.832031 C 6.914062 542.832031 0.5 536.417969 0.5 528.503906 L 0.5 21.421875 C 0.5 13.507812 6.914062 7.097656 14.824219 7.097656 Z M 14.824219 7.097656 " clip-rule="nonzero"/></clipPath><clipPath id="ae8dfe1e04"><path d="M 0.5 0.0976562 L 29.148438 0.0976562 L 29.148438 535.832031 L 0.5 535.832031 Z M 0.5 0.0976562 " clip-rule="nonzero"/></clipPath><clipPath id="4da2ab757c"><path d="M 14.824219 0.0976562 C 22.738281 0.0976562 29.148438 6.507812 29.148438 14.421875 L 29.148438 521.503906 C 29.148438 529.417969 22.738281 535.832031 14.824219 535.832031 C 6.914062 535.832031 0.5 529.417969 0.5 521.503906 L 0.5 14.421875 C 0.5 6.507812 6.914062 0.0976562 14.824219 0.0976562 Z M 14.824219 0.0976562 " clip-rule="nonzero"/></clipPath><clipPath id="d206bbbb2a"><rect x="0" width="30" y="0" height="536"/></clipPath><clipPath id="be54bb7cac"><path d="M 14.675781 7.097656 L 337.992188 7.097656 L 337.992188 77.003906 L 14.675781 77.003906 Z M 14.675781 7.097656 " clip-rule="nonzero"/></clipPath><clipPath id="6d6845be6a"><path d="M 14.820312 7.097656 C 99.929688 7.097656 183.15625 14.554688 243.339844 27.570312 C 303.519531 40.589844 337.992188 58.59375 337.992188 77.003906 L 14.820312 77.003906 Z M 14.820312 7.097656 " clip-rule="nonzero"/></clipPath><clipPath id="47a97006f2"><path d="M 0.675781 0.0976562 L 323.992188 0.0976562 L 323.992188 70.003906 L 0.675781 70.003906 Z M 0.675781 0.0976562 " clip-rule="nonzero"/></clipPath><clipPath id="79e66a50bd"><path d="M 0.820312 0.0976562 C 85.929688 0.0976562 169.15625 7.554688 229.339844 20.570312 C 289.519531 33.589844 323.992188 51.59375 323.992188 70.003906 L 0.820312 70.003906 Z M 0.820312 0.0976562 " clip-rule="nonzero"/></clipPath><clipPath id="75a8504a1b"><rect x="0" width="324" y="0" height="71"/></clipPath><clipPath id="f041f60e72"><path d="M 14.824219 66.542969 L 353.6875 66.542969 L 353.6875 569.796875 L 14.824219 569.796875 Z M 14.824219 66.542969 " clip-rule="nonzero"/></clipPath><clipPath id="de526a0286"><path d="M 0.824219 0.542969 L 339.6875 0.542969 L 339.6875 503.796875 L 0.824219 503.796875 Z M 0.824219 0.542969 " clip-rule="nonzero"/></clipPath><clipPath id="4145479df7"><rect x="0" width="340" y="0" height="504"/></clipPath><clipPath id="a6731da7f9"><path d="M 29.148438 100.304688 L 337.425781 100.304688 L 337.425781 565.203125 L 29.148438 565.203125 Z M 29.148438 100.304688 " clip-rule="nonzero"/></clipPath><clipPath id="48840cbc2c"><path d="M 0.148438 0.304688 L 308.425781 0.304688 L 308.425781 465.203125 L 0.148438 465.203125 Z M 0.148438 0.304688 " clip-rule="nonzero"/></clipPath><clipPath id="4333ef8b32"><rect x="0" width="309" y="0" height="466"/></clipPath><clipPath id="023dd2c16d"><path d="M 28 517.003906 L 337.425781 517.003906 L 337.425781 566.28125 L 28 566.28125 Z M 28 517.003906 " clip-rule="nonzero"/></clipPath><clipPath id="22b9fe861f"><path d="M 28.054688 517.003906 C 109.53125 517.003906 189.199219 522.257812 246.8125 531.433594 C 304.425781 540.613281 337.425781 553.300781 337.425781 566.28125 L 28.054688 566.28125 Z M 28.054688 517.003906 " clip-rule="nonzero"/></clipPath><clipPath id="ef1f2b99f9"><path d="M 0.0390625 0.00390625 L 309.425781 0.00390625 L 309.425781 49.28125 L 0.0390625 49.28125 Z M 0.0390625 0.00390625 " clip-rule="nonzero"/></clipPath><clipPath id="b208f5949d"><path d="M 0.0546875 0.00390625 C 81.53125 0.00390625 161.199219 5.257812 218.8125 14.433594 C 276.425781 23.613281 309.425781 36.300781 309.425781 49.28125 L 0.0546875 49.28125 Z M 0.0546875 0.00390625 " clip-rule="nonzero"/></clipPath><clipPath id="db45a3a5ac"><rect x="0" width="310" y="0" height="50"/></clipPath><clipPath id="1080909a0e"><path d="M 7.386719 541.640625 L 303.066406 541.640625 L 303.066406 578.402344 L 7.386719 578.402344 Z M 7.386719 541.640625 " clip-rule="nonzero"/></clipPath><clipPath id="05ba229c14"><path d="M 7.464844 541.640625 C 85.3125 541.640625 161.4375 545.5625 216.484375 552.410156 C 271.535156 559.253906 303.066406 568.722656 303.066406 578.402344 L 7.464844 578.402344 Z M 7.464844 541.640625 " clip-rule="nonzero"/></clipPath><clipPath id="d8469a5cb8"><path d="M 0.398438 0.640625 L 296.066406 0.640625 L 296.066406 37.402344 L 0.398438 37.402344 Z M 0.398438 0.640625 " clip-rule="nonzero"/></clipPath><clipPath id="f3d3869795"><path d="M 0.464844 0.640625 C 78.3125 0.640625 154.4375 4.5625 209.484375 11.410156 C 264.535156 18.253906 296.066406 27.722656 296.066406 37.402344 L 0.464844 37.402344 Z M 0.464844 0.640625 " clip-rule="nonzero"/></clipPath><clipPath id="43244f4815"><rect x="0" width="297" y="0" height="38"/></clipPath><clipPath id="5302b6c325"><path d="M 337.425781 66.542969 L 661.175781 66.542969 L 661.175781 569.796875 L 337.425781 569.796875 Z M 337.425781 66.542969 " clip-rule="nonzero"/></clipPath><clipPath id="94f6a5e47d"><path d="M 0.425781 0.542969 L 324.175781 0.542969 L 324.175781 503.796875 L 0.425781 503.796875 Z M 0.425781 0.542969 " clip-rule="nonzero"/></clipPath><clipPath id="b37b8c0c5a"><rect x="0" width="325" y="0" height="504"/></clipPath><clipPath id="3b6c2cc3e0"><path d="M 646.851562 7.097656 L 675.5 7.097656 L 675.5 542.832031 L 646.851562 542.832031 Z M 646.851562 7.097656 " clip-rule="nonzero"/></clipPath><clipPath id="94753c1019"><path d="M 661.175781 7.097656 C 669.085938 7.097656 675.5 13.507812 675.5 21.421875 L 675.5 528.503906 C 675.5 536.417969 669.085938 542.832031 661.175781 542.832031 C 653.261719 542.832031 646.851562 536.417969 646.851562 528.503906 L 646.851562 21.421875 C 646.851562 13.507812 653.261719 7.097656 661.175781 7.097656 Z M 661.175781 7.097656 " clip-rule="nonzero"/></clipPath><clipPath id="590b980209"><path d="M 0.851562 0.0976562 L 29.5 0.0976562 L 29.5 535.832031 L 0.851562 535.832031 Z M 0.851562 0.0976562 " clip-rule="nonzero"/></clipPath><clipPath id="174f1f2584"><path d="M 15.175781 0.0976562 C 23.085938 0.0976562 29.5 6.507812 29.5 14.421875 L 29.5 521.503906 C 29.5 529.417969 23.085938 535.832031 15.175781 535.832031 C 7.261719 535.832031 0.851562 529.417969 0.851562 521.503906 L 0.851562 14.421875 C 0.851562 6.507812 7.261719 0.0976562 15.175781 0.0976562 Z M 15.175781 0.0976562 " clip-rule="nonzero"/></clipPath><clipPath id="a33a619954"><rect x="0" width="30" y="0" height="536"/></clipPath><clipPath id="25b895eb5f"><path d="M 338 7 L 661.316406 7 L 661.316406 77.003906 L 338 77.003906 Z M 338 7 " clip-rule="nonzero"/></clipPath><clipPath id="1f63cd9ca2"><path d="M 338 77.003906 C 338 58.59375 372.472656 40.589844 432.65625 27.570312 C 492.839844 14.554688 576.0625 7.097656 661.175781 7.097656 L 661.175781 77.003906 Z M 338 77.003906 " clip-rule="nonzero"/></clipPath><clipPath id="887322bd5b"><path d="M 0 0.078125 L 323.316406 0.078125 L 323.316406 70.003906 L 0 70.003906 Z M 0 0.078125 " clip-rule="nonzero"/></clipPath><clipPath id="1980228a33"><path d="M 0 70.003906 C 0 51.59375 34.472656 33.589844 94.65625 20.570312 C 154.839844 7.554688 238.0625 0.0976562 323.175781 0.0976562 L 323.175781 70.003906 Z M 0 70.003906 " clip-rule="nonzero"/></clipPath><clipPath id="9447a46b9c"><rect x="0" width="324" y="0" height="71"/></clipPath><clipPath id="cb1f1a10d6"><path d="M 372.023438 541.5 L 667.699219 541.5 L 667.699219 578.40625 L 372.023438 578.40625 Z M 372.023438 541.5 " clip-rule="nonzero"/></clipPath><clipPath id="dd4c524963"><path d="M 372.023438 578.40625 C 372.023438 568.722656 403.550781 559.257812 458.589844 552.410156 C 513.628906 545.5625 589.742188 541.640625 667.578125 541.640625 L 667.578125 578.40625 Z M 372.023438 578.40625 " clip-rule="nonzero"/></clipPath><clipPath id="ecc638f61a"><path d="M 0.0234375 0.558594 L 295.640625 0.558594 L 295.640625 37.40625 L 0.0234375 37.40625 Z M 0.0234375 0.558594 " clip-rule="nonzero"/></clipPath><clipPath id="7af28a88db"><path d="M 0.0234375 37.40625 C 0.0234375 27.722656 31.550781 18.257812 86.589844 11.410156 C 141.628906 4.5625 217.742188 0.640625 295.578125 0.640625 L 295.578125 37.40625 Z M 0.0234375 37.40625 " clip-rule="nonzero"/></clipPath><clipPath id="ad4b62beb5"><rect x="0" width="296" y="0" height="38"/></clipPath><clipPath id="f088ef4098"><path d="M 29.015625 31.585938 L 337.421875 31.585938 L 337.421875 100.300781 L 29.015625 100.300781 Z M 29.015625 31.585938 " clip-rule="nonzero"/></clipPath><clipPath id="be3a34bee0"><path d="M 29.144531 31.585938 C 110.332031 31.585938 189.722656 38.917969 247.128906 51.714844 C 304.539062 64.507812 337.421875 82.203125 337.421875 100.300781 L 29.144531 100.300781 Z M 29.144531 31.585938 " clip-rule="nonzero"/></clipPath><clipPath id="7cd48b62c5"><path d="M 0.015625 0.585938 L 308.421875 0.585938 L 308.421875 69.300781 L 0.015625 69.300781 Z M 0.015625 0.585938 " clip-rule="nonzero"/></clipPath><clipPath id="0649e3e916"><path d="M 0.144531 0.585938 C 81.332031 0.585938 160.722656 7.917969 218.128906 20.714844 C 275.539062 33.507812 308.421875 51.203125 308.421875 69.300781 L 0.144531 69.300781 Z M 0.144531 0.585938 " clip-rule="nonzero"/></clipPath><clipPath id="f533aef51a"><rect x="0" width="309" y="0" height="70"/></clipPath><clipPath id="ad464fc25e"><path d="M 29.148438 82.800781 L 325.960938 82.800781 L 325.960938 156.261719 L 29.148438 156.261719 Z M 29.148438 82.800781 " clip-rule="nonzero"/></clipPath><clipPath id="288a404fa2"><path d="M 0.148438 0.800781 L 296.960938 0.800781 L 296.960938 74.261719 L 0.148438 74.261719 Z M 0.148438 0.800781 " clip-rule="nonzero"/></clipPath><clipPath id="5bf3ebd2f6"><rect x="0" width="297" y="0" height="75"/></clipPath><clipPath id="150c963cdb"><path d="M 325.945312 92.835938 L 337.421875 92.835938 L 337.421875 103.796875 L 325.945312 103.796875 Z M 325.945312 92.835938 " clip-rule="nonzero"/></clipPath><clipPath id="ba145d934b"><path d="M 325.953125 92.835938 C 328.972656 92.835938 331.925781 94.003906 334.0625 96.046875 C 336.195312 98.085938 337.421875 100.910156 337.421875 103.796875 L 325.953125 103.796875 Z M 325.953125 92.835938 " clip-rule="nonzero"/></clipPath><clipPath id="50b6dcf35c"><path d="M 0.945312 0.835938 L 12.421875 0.835938 L 12.421875 11.796875 L 0.945312 11.796875 Z M 0.945312 0.835938 " clip-rule="nonzero"/></clipPath><clipPath id="54e3fb94e5"><path d="M 0.953125 0.835938 C 3.972656 0.835938 6.925781 2.003906 9.0625 4.046875 C 11.195312 6.085938 12.421875 8.910156 12.421875 11.796875 L 0.953125 11.796875 Z M 0.953125 0.835938 " clip-rule="nonzero"/></clipPath><clipPath id="42e6b85c4a"><rect x="0" width="13" y="0" height="12"/></clipPath><clipPath id="cadf0ce5ac"><path d="M 293.902344 565.195312 L 381.335938 565.195312 L 381.335938 592.898438 L 293.902344 592.898438 Z M 293.902344 565.195312 " clip-rule="nonzero"/></clipPath><clipPath id="55f56509b3"><path d="M 293.921875 565.195312 C 293.921875 580.285156 313.824219 592.898438 337.628906 592.898438 C 361.433594 592.898438 381.335938 580.285156 381.335938 565.195312 Z M 293.921875 565.195312 " clip-rule="nonzero"/></clipPath><clipPath id="bf49b648a8"><path d="M 0.902344 0.195312 L 88.335938 0.195312 L 88.335938 27.898438 L 0.902344 27.898438 Z M 0.902344 0.195312 " clip-rule="nonzero"/></clipPath><clipPath id="3733b3c93e"><path d="M 0.921875 0.195312 C 0.921875 15.285156 20.824219 27.898438 44.628906 27.898438 C 68.433594 27.898438 88.335938 15.285156 88.335938 0.195312 Z M 0.921875 0.195312 " clip-rule="nonzero"/></clipPath><clipPath id="77c87c43c7"><rect x="0" width="89" y="0" height="28"/></clipPath><clipPath id="5f46783ce1"><path d="M 108 0.121094 L 259 0.121094 L 259 521 L 108 521 Z M 108 0.121094 " clip-rule="nonzero"/></clipPath><clipPath id="dd076cd9ed"><rect x="0" width="151" y="0" height="521"/></clipPath><clipPath id="498a3da2bd"><rect x="0" width="676" y="0" height="593"/></clipPath></defs><g clip-path="url(#1813bef356)"><g transform="matrix(1, 0, 0, 1, 0, -0.000000000000042435)"><g clip-path="url(#853cc167b8)"><g clip-path="url(#e30cfa3c4b)"><g clip-path="url(#154c9e2b6c)"><rect x="-165" width="1080" fill="#4a90e2" height="1079.999992" y="-164.999999" fill-opacity="1"/></g></g></g></g></g><g transform="matrix(1, 0, 0, 1, 37, 75)"><g clip-path="url(#498a3da2bd)"><g clip-path="url(#93335f4cee)"><g clip-path="url(#bb63bdc021)"><g transform="matrix(1, 0, 0, 1, -0.000000000000014211, 7)"><g clip-path="url(#d206bbbb2a)"><g clip-path="url(#ae8dfe1e04)"><g clip-path="url(#4da2ab757c)"><path fill="#fefefe" d="M 0.5 0.0976562 L 29.148438 0.0976562 L 29.148438 535.832031 L 0.5 535.832031 Z M 0.5 0.0976562 " fill-opacity="1" fill-rule="nonzero"/></g></g></g></g></g></g><g clip-path="url(#be54bb7cac)"><g clip-path="url(#6d6845be6a)"><g transform="matrix(1, 0, 0, 1, 14, 7)"><g clip-path="url(#75a8504a1b)"><g clip-path="url(#47a97006f2)"><g clip-path="url(#79e66a50bd)"><path fill="#fefefe" d="M 323.992188 0.0976562 L 323.992188 70.003906 L 0.949219 70.003906 L 0.949219 0.0976562 Z M 323.992188 0.0976562 " fill-opacity="1" fill-rule="nonzero"/></g></g></g></g></g></g><g clip-path="url(#f041f60e72)"><g transform="matrix(1, 0, 0, 1, 14, 66)"><g clip-path="url(#4145479df7)"><g clip-path="url(#de526a0286)"><path fill="#fefefe" d="M 0.824219 0.542969 L 339.6875 0.542969 L 339.6875 503.542969 L 0.824219 503.542969 Z M 0.824219 0.542969 " fill-opacity="1" fill-rule="nonzero"/></g></g></g></g><g clip-path="url(#a6731da7f9)"><g transform="matrix(1, 0, 0, 1, 29, 100)"><g clip-path="url(#4333ef8b32)"><g clip-path="url(#48840cbc2c)"><path fill="#4a90e2" d="M 0.148438 0.304688 L 308.425781 0.304688 L 308.425781 465.128906 L 0.148438 465.128906 Z M 0.148438 0.304688 " fill-opacity="1" fill-rule="nonzero"/></g></g></g></g><g clip-path="url(#023dd2c16d)"><g clip-path="url(#22b9fe861f)"><g transform="matrix(1, 0, 0, 1, 28, 517)"><g clip-path="url(#db45a3a5ac)"><g clip-path="url(#ef1f2b99f9)"><g clip-path="url(#b208f5949d)"><path fill="#fefefe" d="M 309.425781 0.00390625 L 309.425781 49.28125 L 0.0859375 49.28125 L 0.0859375 0.00390625 Z M 309.425781 0.00390625 " fill-opacity="1" fill-rule="nonzero"/></g></g></g></g></g></g><g clip-path="url(#1080909a0e)"><g clip-path="url(#05ba229c14)"><g transform="matrix(1, 0, 0, 1, 7, 541)"><g clip-path="url(#43244f4815)"><g clip-path="url(#d8469a5cb8)"><g clip-path="url(#f3d3869795)"><path fill="#4a90e2" d="M 296.066406 0.640625 L 296.066406 37.402344 L 0.53125 37.402344 L 0.53125 0.640625 Z M 296.066406 0.640625 " fill-opacity="1" fill-rule="nonzero"/></g></g></g></g></g></g><g clip-path="url(#5302b6c325)"><g transform="matrix(1, 0, 0, 1, 337, 66)"><g clip-path="url(#b37b8c0c5a)"><g clip-path="url(#94f6a5e47d)"><path fill="#fefefe" d="M 0.425781 0.542969 L 324.175781 0.542969 L 324.175781 503.871094 L 0.425781 503.871094 Z M 0.425781 0.542969 " fill-opacity="1" fill-rule="nonzero"/></g></g></g></g><g clip-path="url(#3b6c2cc3e0)"><g clip-path="url(#94753c1019)"><g transform="matrix(1, 0, 0, 1, 646, 7)"><g clip-path="url(#a33a619954)"><g clip-path="url(#590b980209)"><g clip-path="url(#174f1f2584)"><path fill="#fefefe" d="M 0.851562 0.0976562 L 29.5 0.0976562 L 29.5 535.832031 L 0.851562 535.832031 Z M 0.851562 0.0976562 " fill-opacity="1" fill-rule="nonzero"/></g></g></g></g></g></g><g clip-path="url(#25b895eb5f)"><g clip-path="url(#1f63cd9ca2)"><g transform="matrix(1, 0, 0, 1, 338, 7)"><g clip-path="url(#9447a46b9c)"><g clip-path="url(#887322bd5b)"><g clip-path="url(#1980228a33)"><path fill="#fefefe" d="M 0 0.0976562 L 323.046875 0.0976562 L 323.046875 70.003906 L 0 70.003906 Z M 0 0.0976562 " fill-opacity="1" fill-rule="nonzero"/></g></g></g></g></g></g><g clip-path="url(#cb1f1a10d6)"><g clip-path="url(#dd4c524963)"><g transform="matrix(1, 0, 0, 1, 372, 541)"><g clip-path="url(#ad4b62beb5)"><g clip-path="url(#ecc638f61a)"><g clip-path="url(#7af28a88db)"><path fill="#4a90e2" d="M 0.0234375 0.640625 L 295.558594 0.640625 L 295.558594 37.40625 L 0.0234375 37.40625 Z M 0.0234375 0.640625 " fill-opacity="1" fill-rule="nonzero"/></g></g></g></g></g></g><g clip-path="url(#f088ef4098)"><g clip-path="url(#be3a34bee0)"><g transform="matrix(1, 0, 0, 1, 29, 31)"><g clip-path="url(#f533aef51a)"><g clip-path="url(#7cd48b62c5)"><g clip-path="url(#0649e3e916)"><path fill="#4a90e2" d="M 308.421875 0.585938 L 308.421875 69.300781 L 0.015625 69.300781 L 0.015625 0.585938 Z M 308.421875 0.585938 " fill-opacity="1" fill-rule="nonzero"/></g></g></g></g></g></g><g clip-path="url(#ad464fc25e)"><g transform="matrix(1, 0, 0, 1, 29, 82)"><g clip-path="url(#5bf3ebd2f6)"><g clip-path="url(#288a404fa2)"><path fill="#4a90e2" d="M 0.148438 0.800781 L 296.855469 0.800781 L 296.855469 74.261719 L 0.148438 74.261719 Z M 0.148438 0.800781 " fill-opacity="1" fill-rule="nonzero"/></g></g></g></g><g clip-path="url(#150c963cdb)"><g clip-path="url(#ba145d934b)"><g transform="matrix(1, 0, 0, 1, 325, 92)"><g clip-path="url(#42e6b85c4a)"><g clip-path="url(#50b6dcf35c)"><g clip-path="url(#54e3fb94e5)"><path fill="#4a90e2" d="M 12.421875 0.835938 L 12.421875 11.796875 L 0.945312 11.796875 L 0.945312 0.835938 Z M 12.421875 0.835938 " fill-opacity="1" fill-rule="nonzero"/></g></g></g></g></g></g><g clip-path="url(#cadf0ce5ac)"><g clip-path="url(#55f56509b3)"><g transform="matrix(1, 0, 0, 1, 293, 565)"><g clip-path="url(#77c87c43c7)"><g clip-path="url(#bf49b648a8)"><g clip-path="url(#3733b3c93e)"><path fill="#ffffff" d="M 88.335938 27.898438 L 0.902344 27.898438 L 0.902344 0.195312 L 88.335938 0.195312 Z M 88.335938 27.898438 " fill-opacity="1" fill-rule="nonzero"/></g></g></g></g></g></g><g clip-path="url(#5f46783ce1)"><g transform="matrix(1, 0, 0, 1, 108, -0.000000000000056843)"><g clip-path="url(#dd076cd9ed)"><g fill="#ffffff" fill-opacity="1"><g transform="translate(1.174004, 408.246655)"><g><path d="M 105.4375 69.53125 L 10.703125 -307.515625 L 47.75 -307.515625 L 142.875 69.53125 Z M 105.4375 69.53125 "/></g></g></g></g></g></g></g></g></svg>