<svg xmlns="http://www.w3.org/2000/svg" xmlns:xlink="http://www.w3.org/1999/xlink" zoomAndPan="magnify" viewBox="0 0 750 750" preserveAspectRatio="xMidYMid meet" version="1.0"><defs><g/><clipPath id="803d5da6d1"><path d="M 0 0 L 750 0 L 750 750 L 0 750 Z M 0 0 " clip-rule="nonzero"/></clipPath><clipPath id="37f6372abe"><path d="M 117.1875 0 L 632.8125 0 C 663.890625 0 693.699219 12.347656 715.675781 34.324219 C 737.652344 56.300781 750 86.109375 750 117.1875 L 750 632.8125 C 750 697.535156 697.535156 750 632.8125 750 L 117.1875 750 C 86.109375 750 56.300781 737.652344 34.324219 715.675781 C 12.347656 693.699219 0 663.890625 0 632.8125 L 0 117.1875 C 0 52.464844 52.464844 0 117.1875 0 Z M 117.1875 0 " clip-rule="nonzero"/></clipPath><clipPath id="4b6dd96558"><path d="M 0 0 L 750 0 L 750 750 L 0 750 Z M 0 0 " clip-rule="nonzero"/></clipPath><clipPath id="c95c1033e1"><path d="M 117.1875 0 L 632.8125 0 C 663.890625 0 693.699219 12.347656 715.675781 34.324219 C 737.652344 56.300781 750 86.109375 750 117.1875 L 750 632.8125 C 750 697.535156 697.535156 750 632.8125 750 L 117.1875 750 C 86.109375 750 56.300781 737.652344 34.324219 715.675781 C 12.347656 693.699219 0 663.890625 0 632.8125 L 0 117.1875 C 0 52.464844 52.464844 0 117.1875 0 Z M 117.1875 0 " clip-rule="nonzero"/></clipPath><clipPath id="63a7a2733c"><rect x="0" width="750" y="0" height="750"/></clipPath><clipPath id="d3a8105ae4"><path d="M 75 199.984375 L 97.386719 199.984375 L 97.386719 603.933594 L 75 603.933594 Z M 75 199.984375 " clip-rule="nonzero"/></clipPath><clipPath id="60645eb0fb"><path d="M 86.195312 199.984375 C 92.375 199.984375 97.386719 204.996094 97.386719 211.179688 L 97.386719 592.671875 C 97.386719 598.855469 92.375 603.867188 86.195312 603.867188 C 80.011719 603.867188 75 598.855469 75 592.671875 L 75 211.179688 C 75 204.996094 80.011719 199.984375 86.195312 199.984375 Z M 86.195312 199.984375 " clip-rule="nonzero"/></clipPath><clipPath id="3e4384a05d"><path d="M 0 0.984375 L 22.386719 0.984375 L 22.386719 404.933594 L 0 404.933594 Z M 0 0.984375 " clip-rule="nonzero"/></clipPath><clipPath id="9d57d05797"><path d="M 11.195312 0.984375 C 17.375 0.984375 22.386719 5.996094 22.386719 12.179688 L 22.386719 393.671875 C 22.386719 399.855469 17.375 404.867188 11.195312 404.867188 C 5.011719 404.867188 0 399.855469 0 393.671875 L 0 12.179688 C 0 5.996094 5.011719 0.984375 11.195312 0.984375 Z M 11.195312 0.984375 " clip-rule="nonzero"/></clipPath><clipPath id="059742a089"><rect x="0" width="23" y="0" height="405"/></clipPath><clipPath id="2c198438af"><path d="M 111.269531 145.359375 L 133.65625 145.359375 L 133.65625 564 L 111.269531 564 Z M 111.269531 145.359375 " clip-rule="nonzero"/></clipPath><clipPath id="34371f388c"><path d="M 122.460938 145.359375 C 128.644531 145.359375 133.65625 150.371094 133.65625 156.554688 L 133.65625 552.800781 C 133.65625 558.984375 128.644531 563.996094 122.460938 563.996094 C 116.28125 563.996094 111.269531 558.984375 111.269531 552.800781 L 111.269531 156.554688 C 111.269531 150.371094 116.28125 145.359375 122.460938 145.359375 Z M 122.460938 145.359375 " clip-rule="nonzero"/></clipPath><clipPath id="3206c27b6d"><path d="M 0.269531 0.359375 L 22.65625 0.359375 L 22.65625 419 L 0.269531 419 Z M 0.269531 0.359375 " clip-rule="nonzero"/></clipPath><clipPath id="cc6d165e71"><path d="M 11.460938 0.359375 C 17.644531 0.359375 22.65625 5.371094 22.65625 11.554688 L 22.65625 407.800781 C 22.65625 413.984375 17.644531 418.996094 11.460938 418.996094 C 5.28125 418.996094 0.269531 413.984375 0.269531 407.800781 L 0.269531 11.554688 C 0.269531 5.371094 5.28125 0.359375 11.460938 0.359375 Z M 11.460938 0.359375 " clip-rule="nonzero"/></clipPath><clipPath id="6251a4585a"><rect x="0" width="23" y="0" height="419"/></clipPath><clipPath id="64e962e7b5"><path d="M 319.945312 603.386719 L 379.554688 603.386719 L 379.554688 621.296875 L 319.945312 621.296875 Z M 319.945312 603.386719 " clip-rule="nonzero"/></clipPath><clipPath id="638b93fc05"><path d="M 379.546875 621.296875 C 363.847656 621.296875 348.5 619.386719 337.402344 616.050781 C 326.300781 612.71875 319.945312 608.105469 319.945312 603.386719 L 379.546875 603.386719 Z M 379.546875 621.296875 " clip-rule="nonzero"/></clipPath><clipPath id="9b45ad2a77"><path d="M 0.945312 0.386719 L 60.554688 0.386719 L 60.554688 18.296875 L 0.945312 18.296875 Z M 0.945312 0.386719 " clip-rule="nonzero"/></clipPath><clipPath id="0903666db7"><path d="M 60.546875 18.296875 C 44.847656 18.296875 29.5 16.386719 18.402344 13.050781 C 7.300781 9.71875 0.945312 5.105469 0.945312 0.386719 L 60.546875 0.386719 Z M 60.546875 18.296875 " clip-rule="nonzero"/></clipPath><clipPath id="9d3dc32c9a"><rect x="0" width="61" y="0" height="19"/></clipPath><clipPath id="b7a07e23e8"><path d="M 122.351562 145.359375 L 375 145.359375 L 375 199.984375 L 122.351562 199.984375 Z M 122.351562 145.359375 " clip-rule="nonzero"/></clipPath><clipPath id="3e0522e88a"><path d="M 122.460938 145.359375 C 188.972656 145.359375 254.003906 151.1875 301.035156 161.359375 C 348.0625 171.53125 375 185.601562 375 199.984375 L 122.460938 199.984375 Z M 122.460938 145.359375 " clip-rule="nonzero"/></clipPath><clipPath id="5dbffd7881"><path d="M 0.398438 0.359375 L 253 0.359375 L 253 54.984375 L 0.398438 54.984375 Z M 0.398438 0.359375 " clip-rule="nonzero"/></clipPath><clipPath id="336dc0a1fb"><path d="M 0.460938 0.359375 C 66.972656 0.359375 132.003906 6.1875 179.035156 16.359375 C 226.0625 26.53125 253 40.601562 253 54.984375 L 0.460938 54.984375 Z M 0.460938 0.359375 " clip-rule="nonzero"/></clipPath><clipPath id="90fabbad37"><rect x="0" width="253" y="0" height="55"/></clipPath><clipPath id="094c7d3866"><path d="M 122.460938 191.8125 L 387.257812 191.8125 L 387.257812 603.867188 L 122.460938 603.867188 Z M 122.460938 191.8125 " clip-rule="nonzero"/></clipPath><clipPath id="f62efd6461"><path d="M 0.460938 0.8125 L 265.257812 0.8125 L 265.257812 412.867188 L 0.460938 412.867188 Z M 0.460938 0.8125 " clip-rule="nonzero"/></clipPath><clipPath id="e130010c28"><rect x="0" width="266" y="0" height="413"/></clipPath><clipPath id="c3d13683c9"><path d="M 133.65625 218.195312 L 374.550781 218.195312 L 374.550781 581.480469 L 133.65625 581.480469 Z M 133.65625 218.195312 " clip-rule="nonzero"/></clipPath><clipPath id="9fbd7f60a6"><path d="M 0.65625 0.195312 L 241.550781 0.195312 L 241.550781 363.480469 L 0.65625 363.480469 Z M 0.65625 0.195312 " clip-rule="nonzero"/></clipPath><clipPath id="9d8de66ca8"><rect x="0" width="242" y="0" height="364"/></clipPath><clipPath id="ee1bcd2829"><path d="M 132.675781 543.8125 L 374.550781 543.8125 L 374.550781 582.320312 L 132.675781 582.320312 Z M 132.675781 543.8125 " clip-rule="nonzero"/></clipPath><clipPath id="6b0cff39db"><path d="M 132.804688 543.8125 C 196.46875 543.8125 258.726562 547.921875 303.746094 555.09375 C 348.765625 562.265625 374.550781 572.179688 374.550781 582.320312 L 132.804688 582.320312 Z M 132.804688 543.8125 " clip-rule="nonzero"/></clipPath><clipPath id="7ca126cce4"><path d="M 0.71875 0.8125 L 242.550781 0.8125 L 242.550781 39.320312 L 0.71875 39.320312 Z M 0.71875 0.8125 " clip-rule="nonzero"/></clipPath><clipPath id="37eee4b8ed"><path d="M 0.804688 0.8125 C 64.46875 0.8125 126.726562 4.921875 171.746094 12.09375 C 216.765625 19.265625 242.550781 29.179688 242.550781 39.320312 L 0.804688 39.320312 Z M 0.804688 0.8125 " clip-rule="nonzero"/></clipPath><clipPath id="d7066c3d6a"><rect x="0" width="243" y="0" height="40"/></clipPath><clipPath id="a7f1b810a9"><path d="M 116.679688 563.070312 L 347.699219 563.070312 L 347.699219 585.070312 L 116.679688 585.070312 Z M 116.679688 563.070312 " clip-rule="nonzero"/></clipPath><clipPath id="27bd2acbac"><path d="M 116.707031 563.070312 C 177.539062 563.070312 237.027344 565.417969 280.042969 569.511719 C 323.058594 573.609375 347.699219 579.277344 347.699219 585.070312 L 116.707031 585.070312 Z M 116.707031 563.070312 " clip-rule="nonzero"/></clipPath><clipPath id="0dc061e7a1"><path d="M 0.679688 0.0703125 L 231.699219 0.0703125 L 231.699219 22.070312 L 0.679688 22.070312 Z M 0.679688 0.0703125 " clip-rule="nonzero"/></clipPath><clipPath id="535a8d068d"><path d="M 0.707031 0.0703125 C 61.539062 0.0703125 121.027344 2.417969 164.042969 6.511719 C 207.058594 10.609375 231.699219 16.277344 231.699219 22.070312 L 0.707031 22.070312 Z M 0.707031 0.0703125 " clip-rule="nonzero"/></clipPath><clipPath id="48911341f0"><rect x="0" width="232" y="0" height="23"/></clipPath><clipPath id="e621103acf"><path d="M 374.550781 191.8125 L 627.539062 191.8125 L 627.539062 603.867188 L 374.550781 603.867188 Z M 374.550781 191.8125 " clip-rule="nonzero"/></clipPath><clipPath id="b561dc5b0a"><path d="M 0.550781 0.8125 L 253.539062 0.8125 L 253.539062 412.867188 L 0.550781 412.867188 Z M 0.550781 0.8125 " clip-rule="nonzero"/></clipPath><clipPath id="f009db1207"><rect x="0" width="254" y="0" height="413"/></clipPath><clipPath id="61821ad6d7"><path d="M 652.613281 199.984375 L 675 199.984375 L 675 603.933594 L 652.613281 603.933594 Z M 652.613281 199.984375 " clip-rule="nonzero"/></clipPath><clipPath id="336d7419d8"><path d="M 663.804688 199.984375 C 669.988281 199.984375 675 204.996094 675 211.179688 L 675 592.671875 C 675 598.855469 669.988281 603.867188 663.804688 603.867188 C 657.625 603.867188 652.613281 598.855469 652.613281 592.671875 L 652.613281 211.179688 C 652.613281 204.996094 657.625 199.984375 663.804688 199.984375 Z M 663.804688 199.984375 " clip-rule="nonzero"/></clipPath><clipPath id="f4576eb0d9"><path d="M 0.613281 0.984375 L 23 0.984375 L 23 404.933594 L 0.613281 404.933594 Z M 0.613281 0.984375 " clip-rule="nonzero"/></clipPath><clipPath id="2bc4006919"><path d="M 11.804688 0.984375 C 17.988281 0.984375 23 5.996094 23 12.179688 L 23 393.671875 C 23 399.855469 17.988281 404.867188 11.804688 404.867188 C 5.625 404.867188 0.613281 399.855469 0.613281 393.671875 L 0.613281 12.179688 C 0.613281 5.996094 5.625 0.984375 11.804688 0.984375 Z M 11.804688 0.984375 " clip-rule="nonzero"/></clipPath><clipPath id="69818bbd21"><rect x="0" width="23" y="0" height="405"/></clipPath><clipPath id="5be4600082"><path d="M 616.34375 145.359375 L 638.730469 145.359375 L 638.730469 564 L 616.34375 564 Z M 616.34375 145.359375 " clip-rule="nonzero"/></clipPath><clipPath id="c359fe29dd"><path d="M 627.539062 145.359375 C 633.71875 145.359375 638.730469 150.371094 638.730469 156.554688 L 638.730469 552.800781 C 638.730469 558.984375 633.71875 563.996094 627.539062 563.996094 C 621.355469 563.996094 616.34375 558.984375 616.34375 552.800781 L 616.34375 156.554688 C 616.34375 150.371094 621.355469 145.359375 627.539062 145.359375 Z M 627.539062 145.359375 " clip-rule="nonzero"/></clipPath><clipPath id="3531e05ea8"><path d="M 0.34375 0.359375 L 22.730469 0.359375 L 22.730469 419 L 0.34375 419 Z M 0.34375 0.359375 " clip-rule="nonzero"/></clipPath><clipPath id="fd1d33f225"><path d="M 11.539062 0.359375 C 17.71875 0.359375 22.730469 5.371094 22.730469 11.554688 L 22.730469 407.800781 C 22.730469 413.984375 17.71875 418.996094 11.539062 418.996094 C 5.355469 418.996094 0.34375 413.984375 0.34375 407.800781 L 0.34375 11.554688 C 0.34375 5.371094 5.355469 0.359375 11.539062 0.359375 Z M 11.539062 0.359375 " clip-rule="nonzero"/></clipPath><clipPath id="cb19effc71"><rect x="0" width="23" y="0" height="419"/></clipPath><clipPath id="ec2f4037bf"><path d="M 373.398438 603.390625 L 430.070312 603.390625 L 430.070312 621.371094 L 373.398438 621.371094 Z M 373.398438 603.390625 " clip-rule="nonzero"/></clipPath><clipPath id="99b9d3c502"><path d="M 430.070312 603.390625 C 430.070312 608.109375 424.027344 612.71875 413.476562 616.054688 C 402.929688 619.390625 388.34375 621.300781 373.421875 621.300781 L 373.421875 603.390625 Z M 430.070312 603.390625 " clip-rule="nonzero"/></clipPath><clipPath id="b3fa476293"><path d="M 0.398438 0.390625 L 57.070312 0.390625 L 57.070312 18.359375 L 0.398438 18.359375 Z M 0.398438 0.390625 " clip-rule="nonzero"/></clipPath><clipPath id="4416871072"><path d="M 57.070312 0.390625 C 57.070312 5.109375 51.027344 9.71875 40.476562 13.054688 C 29.929688 16.390625 15.34375 18.300781 0.421875 18.300781 L 0.421875 0.390625 Z M 57.070312 0.390625 " clip-rule="nonzero"/></clipPath><clipPath id="0f49ff6461"><rect x="0" width="58" y="0" height="19"/></clipPath><clipPath id="ff7c1399b3"><path d="M 375 145.144531 L 627.648438 145.144531 L 627.648438 199.984375 L 375 199.984375 Z M 375 145.144531 " clip-rule="nonzero"/></clipPath><clipPath id="a41a3fc9a8"><path d="M 375 199.984375 C 375 185.601562 401.9375 171.53125 448.964844 161.359375 C 495.996094 151.1875 561.027344 145.359375 627.539062 145.359375 L 627.539062 199.984375 Z M 375 199.984375 " clip-rule="nonzero"/></clipPath><clipPath id="6092fb08f2"><path d="M 0 0.199219 L 252.601562 0.199219 L 252.601562 54.984375 L 0 54.984375 Z M 0 0.199219 " clip-rule="nonzero"/></clipPath><clipPath id="e606d0420f"><path d="M 0 54.984375 C 0 40.601562 26.9375 26.53125 73.964844 16.359375 C 120.996094 6.1875 186.027344 0.359375 252.539062 0.359375 L 252.539062 54.984375 Z M 0 54.984375 " clip-rule="nonzero"/></clipPath><clipPath id="b8bb185569"><rect x="0" width="253" y="0" height="55"/></clipPath><clipPath id="4fa565019f"><path d="M 401.585938 563 L 632.605469 563 L 632.605469 585.070312 L 401.585938 585.070312 Z M 401.585938 563 " clip-rule="nonzero"/></clipPath><clipPath id="410cb8c177"><path d="M 401.585938 585.070312 C 401.585938 579.273438 426.222656 573.609375 469.230469 569.511719 C 512.242188 565.414062 571.71875 563.066406 632.542969 563.066406 L 632.542969 585.070312 Z M 401.585938 585.070312 " clip-rule="nonzero"/></clipPath><clipPath id="77790cc899"><path d="M 0.585938 0.0390625 L 231.605469 0.0390625 L 231.605469 22.070312 L 0.585938 22.070312 Z M 0.585938 0.0390625 " clip-rule="nonzero"/></clipPath><clipPath id="f2e22ade74"><path d="M 0.585938 22.070312 C 0.585938 16.273438 25.222656 10.609375 68.230469 6.511719 C 111.242188 2.414062 170.71875 0.0664062 231.542969 0.0664062 L 231.542969 22.070312 Z M 0.585938 22.070312 " clip-rule="nonzero"/></clipPath><clipPath id="ea2db7d316"><rect x="0" width="232" y="0" height="23"/></clipPath><clipPath id="b78d9064aa"><path d="M 375 581.480469 L 675 581.480469 L 675 603.867188 L 375 603.867188 Z M 375 581.480469 " clip-rule="nonzero"/></clipPath><clipPath id="3a7b0dbbc1"><path d="M 386.195312 581.480469 L 663.804688 581.480469 C 669.988281 581.480469 675 586.492188 675 592.671875 C 675 598.855469 669.988281 603.867188 663.804688 603.867188 L 386.195312 603.867188 C 380.011719 603.867188 375 598.855469 375 592.671875 C 375 586.492188 380.011719 581.480469 386.195312 581.480469 Z M 386.195312 581.480469 " clip-rule="nonzero"/></clipPath><clipPath id="313c06fd0f"><path d="M 0 0.480469 L 300 0.480469 L 300 22.867188 L 0 22.867188 Z M 0 0.480469 " clip-rule="nonzero"/></clipPath><clipPath id="f64a7ae9ac"><path d="M 11.195312 0.480469 L 288.804688 0.480469 C 294.988281 0.480469 300 5.492188 300 11.671875 C 300 17.855469 294.988281 22.867188 288.804688 22.867188 L 11.195312 22.867188 C 5.011719 22.867188 0 17.855469 0 11.671875 C 0 5.492188 5.011719 0.480469 11.195312 0.480469 Z M 11.195312 0.480469 " clip-rule="nonzero"/></clipPath><clipPath id="bc182e57e6"><rect x="0" width="300" y="0" height="23"/></clipPath><clipPath id="220d9a5713"><path d="M 75 581.480469 L 375 581.480469 L 375 603.867188 L 75 603.867188 Z M 75 581.480469 " clip-rule="nonzero"/></clipPath><clipPath id="4f9051d5ec"><path d="M 86.195312 581.480469 L 363.804688 581.480469 C 369.988281 581.480469 375 586.492188 375 592.671875 C 375 598.855469 369.988281 603.867188 363.804688 603.867188 L 86.195312 603.867188 C 80.011719 603.867188 75 598.855469 75 592.671875 C 75 586.492188 80.011719 581.480469 86.195312 581.480469 Z M 86.195312 581.480469 " clip-rule="nonzero"/></clipPath><clipPath id="fc133356b3"><path d="M 0 0.480469 L 300 0.480469 L 300 22.867188 L 0 22.867188 Z M 0 0.480469 " clip-rule="nonzero"/></clipPath><clipPath id="abc0649f8d"><path d="M 11.195312 0.480469 L 288.804688 0.480469 C 294.988281 0.480469 300 5.492188 300 11.671875 C 300 17.855469 294.988281 22.867188 288.804688 22.867188 L 11.195312 22.867188 C 5.011719 22.867188 0 17.855469 0 11.671875 C 0 5.492188 5.011719 0.480469 11.195312 0.480469 Z M 11.195312 0.480469 " clip-rule="nonzero"/></clipPath><clipPath id="61aa8fbbae"><rect x="0" width="300" y="0" height="23"/></clipPath><clipPath id="d400161cfb"><path d="M 133.550781 164.503906 L 374.550781 164.503906 L 374.550781 218.199219 L 133.550781 218.199219 Z M 133.550781 164.503906 " clip-rule="nonzero"/></clipPath><clipPath id="4a7cb76827"><path d="M 133.652344 164.503906 C 197.097656 164.503906 259.132812 170.230469 303.992188 180.230469 C 348.855469 190.230469 374.550781 204.058594 374.550781 218.199219 L 133.652344 218.199219 Z M 133.652344 164.503906 " clip-rule="nonzero"/></clipPath><clipPath id="932f38c4ab"><path d="M 0.550781 0.503906 L 241.550781 0.503906 L 241.550781 54.199219 L 0.550781 54.199219 Z M 0.550781 0.503906 " clip-rule="nonzero"/></clipPath><clipPath id="f3e2741419"><path d="M 0.652344 0.503906 C 64.097656 0.503906 126.132812 6.230469 170.992188 16.230469 C 215.855469 26.230469 241.550781 40.058594 241.550781 54.199219 L 0.652344 54.199219 Z M 0.652344 0.503906 " clip-rule="nonzero"/></clipPath><clipPath id="3785c5d545"><rect x="0" width="242" y="0" height="55"/></clipPath><clipPath id="e031a3e8c9"><path d="M 133.65625 204.515625 L 365.589844 204.515625 L 365.589844 261.921875 L 133.65625 261.921875 Z M 133.65625 204.515625 " clip-rule="nonzero"/></clipPath><clipPath id="f1cf0a1344"><path d="M 0.65625 0.515625 L 232.589844 0.515625 L 232.589844 57.921875 L 0.65625 57.921875 Z M 0.65625 0.515625 " clip-rule="nonzero"/></clipPath><clipPath id="30aa5d55f6"><rect x="0" width="233" y="0" height="58"/></clipPath><clipPath id="9a93fdab21"><path d="M 365.582031 212.351562 L 374.546875 212.351562 L 374.546875 220.917969 L 365.582031 220.917969 Z M 365.582031 212.351562 " clip-rule="nonzero"/></clipPath><clipPath id="b8ea21580e"><path d="M 365.585938 212.351562 C 367.945312 212.351562 370.253906 213.265625 371.921875 214.863281 C 373.59375 216.457031 374.546875 218.664062 374.546875 220.917969 L 365.585938 220.917969 Z M 365.585938 212.351562 " clip-rule="nonzero"/></clipPath><clipPath id="0c1b08f92b"><path d="M 0.582031 0.351562 L 9.546875 0.351562 L 9.546875 8.917969 L 0.582031 8.917969 Z M 0.582031 0.351562 " clip-rule="nonzero"/></clipPath><clipPath id="1dabcba60a"><path d="M 0.585938 0.351562 C 2.945312 0.351562 5.253906 1.265625 6.921875 2.863281 C 8.59375 4.457031 9.546875 6.664062 9.546875 8.917969 L 0.585938 8.917969 Z M 0.585938 0.351562 " clip-rule="nonzero"/></clipPath><clipPath id="b25decfb93"><rect x="0" width="10" y="0" height="9"/></clipPath><clipPath id="f1028de297"><rect x="0" width="750" y="0" height="750"/></clipPath></defs><g transform="matrix(1, 0, 0, 1, 0, -0.000000000000042435)"><g clip-path="url(#f1028de297)"><g clip-path="url(#803d5da6d1)"><g clip-path="url(#37f6372abe)"><g transform="matrix(1, 0, 0, 1, 0, -0.000000000000042435)"><g clip-path="url(#63a7a2733c)"><g clip-path="url(#4b6dd96558)"><g clip-path="url(#c95c1033e1)"><rect x="-273" width="1296" fill="#4a90e2" y="-272.999998" height="1295.999991" fill-opacity="1"/></g></g></g></g></g></g><g clip-path="url(#d3a8105ae4)"><g clip-path="url(#60645eb0fb)"><g transform="matrix(1, 0, 0, 1, 75, 199)"><g clip-path="url(#059742a089)"><g clip-path="url(#3e4384a05d)"><g clip-path="url(#9d57d05797)"><path fill="#fefefe" d="M 0 0.984375 L 22.386719 0.984375 L 22.386719 404.847656 L 0 404.847656 Z M 0 0.984375 " fill-opacity="1" fill-rule="nonzero"/></g></g></g></g></g></g><g clip-path="url(#2c198438af)"><g clip-path="url(#34371f388c)"><g transform="matrix(1, 0, 0, 1, 111, 145)"><g clip-path="url(#6251a4585a)"><g clip-path="url(#3206c27b6d)"><g clip-path="url(#cc6d165e71)"><path fill="#fefefe" d="M 0.269531 0.359375 L 22.65625 0.359375 L 22.65625 419 L 0.269531 419 Z M 0.269531 0.359375 " fill-opacity="1" fill-rule="nonzero"/></g></g></g></g></g></g><g clip-path="url(#64e962e7b5)"><g clip-path="url(#638b93fc05)"><g transform="matrix(1, 0, 0, 1, 319, 603)"><g clip-path="url(#9d3dc32c9a)"><g clip-path="url(#9b45ad2a77)"><g clip-path="url(#0903666db7)"><path fill="#fefefe" d="M 0.945312 18.296875 L 0.945312 0.386719 L 60.554688 0.386719 L 60.554688 18.296875 Z M 0.945312 18.296875 " fill-opacity="1" fill-rule="nonzero"/></g></g></g></g></g></g><g clip-path="url(#b7a07e23e8)"><g clip-path="url(#3e0522e88a)"><g transform="matrix(1, 0, 0, 1, 122, 145)"><g clip-path="url(#90fabbad37)"><g clip-path="url(#5dbffd7881)"><g clip-path="url(#336dc0a1fb)"><path fill="#fefefe" d="M 253 0.359375 L 253 54.984375 L 0.5625 54.984375 L 0.5625 0.359375 Z M 253 0.359375 " fill-opacity="1" fill-rule="nonzero"/></g></g></g></g></g></g><g clip-path="url(#094c7d3866)"><g transform="matrix(1, 0, 0, 1, 122, 191)"><g clip-path="url(#e130010c28)"><g clip-path="url(#f62efd6461)"><path fill="#fefefe" d="M 0.460938 0.8125 L 265.257812 0.8125 L 265.257812 412.488281 L 0.460938 412.488281 Z M 0.460938 0.8125 " fill-opacity="1" fill-rule="nonzero"/></g></g></g></g><g clip-path="url(#c3d13683c9)"><g transform="matrix(1, 0, 0, 1, 133, 218)"><g clip-path="url(#9d8de66ca8)"><g clip-path="url(#9fbd7f60a6)"><path fill="#4a90e2" d="M 0.65625 0.195312 L 241.550781 0.195312 L 241.550781 363.421875 L 0.65625 363.421875 Z M 0.65625 0.195312 " fill-opacity="1" fill-rule="nonzero"/></g></g></g></g><g clip-path="url(#ee1bcd2829)"><g clip-path="url(#6b0cff39db)"><g transform="matrix(1, 0, 0, 1, 132, 543)"><g clip-path="url(#d7066c3d6a)"><g clip-path="url(#7ca126cce4)"><g clip-path="url(#37eee4b8ed)"><path fill="#fefefe" d="M 242.550781 0.8125 L 242.550781 39.320312 L 0.828125 39.320312 L 0.828125 0.8125 Z M 242.550781 0.8125 " fill-opacity="1" fill-rule="nonzero"/></g></g></g></g></g></g><g clip-path="url(#a7f1b810a9)"><g clip-path="url(#27bd2acbac)"><g transform="matrix(1, 0, 0, 1, 116, 563)"><g clip-path="url(#48911341f0)"><g clip-path="url(#0dc061e7a1)"><g clip-path="url(#535a8d068d)"><path fill="#4a90e2" d="M 231.699219 0.0703125 L 231.699219 22.070312 L 0.679688 22.070312 L 0.679688 0.0703125 Z M 231.699219 0.0703125 " fill-opacity="1" fill-rule="nonzero"/></g></g></g></g></g></g><g clip-path="url(#e621103acf)"><g transform="matrix(1, 0, 0, 1, 374, 191)"><g clip-path="url(#f009db1207)"><g clip-path="url(#b561dc5b0a)"><path fill="#fefefe" d="M 0.550781 0.8125 L 253.539062 0.8125 L 253.539062 412.902344 L 0.550781 412.902344 Z M 0.550781 0.8125 " fill-opacity="1" fill-rule="nonzero"/></g></g></g></g><g clip-path="url(#61821ad6d7)"><g clip-path="url(#336d7419d8)"><g transform="matrix(1, 0, 0, 1, 652, 199)"><g clip-path="url(#69818bbd21)"><g clip-path="url(#f4576eb0d9)"><g clip-path="url(#2bc4006919)"><path fill="#fefefe" d="M 0.613281 0.984375 L 23 0.984375 L 23 404.847656 L 0.613281 404.847656 Z M 0.613281 0.984375 " fill-opacity="1" fill-rule="nonzero"/></g></g></g></g></g></g><g clip-path="url(#5be4600082)"><g clip-path="url(#c359fe29dd)"><g transform="matrix(1, 0, 0, 1, 616, 145)"><g clip-path="url(#cb19effc71)"><g clip-path="url(#3531e05ea8)"><g clip-path="url(#fd1d33f225)"><path fill="#fefefe" d="M 0.34375 0.359375 L 22.730469 0.359375 L 22.730469 419 L 0.34375 419 Z M 0.34375 0.359375 " fill-opacity="1" fill-rule="nonzero"/></g></g></g></g></g></g><g clip-path="url(#ec2f4037bf)"><g clip-path="url(#99b9d3c502)"><g transform="matrix(1, 0, 0, 1, 373, 603)"><g clip-path="url(#0f49ff6461)"><g clip-path="url(#b3fa476293)"><g clip-path="url(#4416871072)"><path fill="#fefefe" d="M 57.070312 18.300781 L 0.398438 18.300781 L 0.398438 0.390625 L 57.070312 0.390625 Z M 57.070312 18.300781 " fill-opacity="1" fill-rule="nonzero"/></g></g></g></g></g></g><g clip-path="url(#ff7c1399b3)"><g clip-path="url(#a41a3fc9a8)"><g transform="matrix(1, 0, 0, 1, 375, 145)"><g clip-path="url(#b8bb185569)"><g clip-path="url(#6092fb08f2)"><g clip-path="url(#e606d0420f)"><path fill="#fefefe" d="M 0 0.359375 L 252.4375 0.359375 L 252.4375 54.984375 L 0 54.984375 Z M 0 0.359375 " fill-opacity="1" fill-rule="nonzero"/></g></g></g></g></g></g><g clip-path="url(#4fa565019f)"><g clip-path="url(#410cb8c177)"><g transform="matrix(1, 0, 0, 1, 401, 563)"><g clip-path="url(#ea2db7d316)"><g clip-path="url(#77790cc899)"><g clip-path="url(#f2e22ade74)"><path fill="#4a90e2" d="M 0.585938 0.0664062 L 231.519531 0.0664062 L 231.519531 22.070312 L 0.585938 22.070312 Z M 0.585938 0.0664062 " fill-opacity="1" fill-rule="nonzero"/></g></g></g></g></g></g><g clip-path="url(#b78d9064aa)"><g clip-path="url(#3a7b0dbbc1)"><g transform="matrix(1, 0, 0, 1, 375, 581)"><g clip-path="url(#bc182e57e6)"><g clip-path="url(#313c06fd0f)"><g clip-path="url(#f64a7ae9ac)"><path fill="#fefefe" d="M 0 0.480469 L 299.964844 0.480469 L 299.964844 22.867188 L 0 22.867188 Z M 0 0.480469 " fill-opacity="1" fill-rule="nonzero"/></g></g></g></g></g></g><g clip-path="url(#220d9a5713)"><g clip-path="url(#4f9051d5ec)"><g transform="matrix(1, 0, 0, 1, 75, 581)"><g clip-path="url(#61aa8fbbae)"><g clip-path="url(#fc133356b3)"><g clip-path="url(#abc0649f8d)"><path fill="#fefefe" d="M 0 0.480469 L 299.964844 0.480469 L 299.964844 22.867188 L 0 22.867188 Z M 0 0.480469 " fill-opacity="1" fill-rule="nonzero"/></g></g></g></g></g></g><g clip-path="url(#d400161cfb)"><g clip-path="url(#4a7cb76827)"><g transform="matrix(1, 0, 0, 1, 133, 164)"><g clip-path="url(#3785c5d545)"><g clip-path="url(#932f38c4ab)"><g clip-path="url(#f3e2741419)"><path fill="#4a90e2" d="M 241.550781 0.503906 L 241.550781 54.199219 L 0.550781 54.199219 L 0.550781 0.503906 Z M 241.550781 0.503906 " fill-opacity="1" fill-rule="nonzero"/></g></g></g></g></g></g><g clip-path="url(#e031a3e8c9)"><g transform="matrix(1, 0, 0, 1, 133, 204)"><g clip-path="url(#30aa5d55f6)"><g clip-path="url(#f1cf0a1344)"><path fill="#4a90e2" d="M 0.65625 0.515625 L 232.511719 0.515625 L 232.511719 57.921875 L 0.65625 57.921875 Z M 0.65625 0.515625 " fill-opacity="1" fill-rule="nonzero"/></g></g></g></g><g clip-path="url(#9a93fdab21)"><g clip-path="url(#b8ea21580e)"><g transform="matrix(1, 0, 0, 1, 365, 212)"><g clip-path="url(#b25decfb93)"><g clip-path="url(#0c1b08f92b)"><g clip-path="url(#1dabcba60a)"><path fill="#4a90e2" d="M 9.546875 0.351562 L 9.546875 8.917969 L 0.582031 8.917969 L 0.582031 0.351562 Z M 9.546875 0.351562 " fill-opacity="1" fill-rule="nonzero"/></g></g></g></g></g></g><g fill="#ffffff" fill-opacity="1"><g transform="translate(196.189351, 468.67982)"><g><path d="M 82.390625 54.328125 L 8.359375 -240.296875 L 37.3125 -240.296875 L 111.640625 54.328125 Z M 82.390625 54.328125 "/></g></g></g></g></g></svg>